<svg width="250" height="250" viewBox="0 0 250 250" fill="none" xmlns="http://www.w3.org/2000/svg">
<path d="M43.6873 225.658C89.1425 248.655 162.836 248.662 208.292 225.658C253.747 202.654 253.74 165.371 208.292 142.374C162.843 119.377 89.1425 119.377 43.6873 142.374C-1.76781 165.371 -1.76121 202.661 43.6873 225.658Z" fill="#F5F5F5"/>
<path d="M208.133 208.662C216.505 208.662 223.292 205.229 223.292 200.994C223.292 196.759 216.505 193.326 208.133 193.326C199.762 193.326 192.975 196.759 192.975 200.994C192.975 205.229 199.762 208.662 208.133 208.662Z" fill="#EBEBEB"/>
<path d="M40.2375 202.094L45.6003 198.81C48.5945 196.216 50.8734 192.811 52.1966 188.957C53.8523 184.111 53.6214 180.427 52.434 178.578C50.9763 176.303 47.1966 176.702 47.0449 181.492C46.7282 190.931 44.1359 197.479 40.2375 202.094Z" fill="#EEBBC3"/>
<path opacity="0.2" d="M40.2375 202.094L45.6003 198.81C48.5945 196.216 50.8734 192.811 52.1966 188.957C53.8523 184.111 53.6214 180.427 52.434 178.578C50.9763 176.303 47.1966 176.702 47.0449 181.492C46.7282 190.931 44.1359 197.479 40.2375 202.094Z" fill="black"/>
<path d="M40.2375 202.444C40.1676 202.443 40.0999 202.419 40.0439 202.374C39.988 202.33 39.9468 202.268 39.9263 202.197C39.9057 202.126 39.9069 202.05 39.9297 201.98C39.9524 201.91 39.9955 201.849 40.0528 201.807C52.4538 192.703 50.0528 180.007 50.0264 179.881C50.0173 179.835 50.0168 179.788 50.025 179.741C50.0332 179.695 50.0498 179.651 50.074 179.612C50.0982 179.572 50.1295 179.539 50.166 179.512C50.2025 179.486 50.2436 179.467 50.2869 179.457C50.3303 179.448 50.3749 179.447 50.4184 179.456C50.4619 179.464 50.5034 179.482 50.5404 179.508C50.5775 179.534 50.6094 179.567 50.6344 179.605C50.6594 179.644 50.6769 179.688 50.686 179.734C50.686 179.867 53.219 192.997 40.4486 202.381C40.3866 202.426 40.3124 202.448 40.2375 202.444Z" fill="white"/>
<path d="M29.4921 208.683C29.4921 208.683 27.6253 207.073 28.0739 204.888C28.5224 202.703 29.7296 201.134 27.6649 198.319C25.6003 195.504 25.0264 191.751 27.4934 189.72C29.3733 188.144 32.3087 190.371 33.3641 186.218C34.1425 183.179 33.8786 176.45 37.5264 174.209C41.1741 171.968 43.4631 175.343 42.8892 179.909C42.3879 183.992 41.6755 187.92 42.2295 189.013C43.2982 191.113 45.1253 190.826 45.0396 194.664C44.967 198.235 41.781 201.19 41.781 201.19L29.4921 208.683Z" fill="#EEBBC3"/>
<path d="M35.6201 205.259C35.5394 205.258 35.4618 205.227 35.4012 205.17C35.3407 205.113 35.3013 205.036 35.2902 204.951C34.347 196.653 36.6095 182.325 38.4565 178.067C38.472 178.02 38.4969 177.977 38.5295 177.941C38.5621 177.905 38.6016 177.876 38.6453 177.858C38.6891 177.839 38.7361 177.831 38.7831 177.833C38.8302 177.835 38.8763 177.848 38.9182 177.871C38.9576 177.89 38.993 177.917 39.0224 177.951C39.0518 177.984 39.0745 178.024 39.0893 178.067C39.104 178.11 39.1105 178.156 39.1083 178.201C39.1061 178.247 39.0953 178.292 39.0765 178.333C37.2493 182.535 35.066 196.905 35.9697 204.839C35.9789 204.931 35.9536 205.023 35.8993 205.095C35.8449 205.167 35.7659 205.213 35.6794 205.224L35.6201 205.259Z" fill="white"/>
<path d="M35.442 198.796C35.3915 198.798 35.3413 198.786 35.2968 198.76C33.0079 197.577 31.5567 193.354 31.4974 193.158C31.4812 193.115 31.4734 193.068 31.4745 193.021C31.4756 192.975 31.4855 192.928 31.5036 192.886C31.5218 192.843 31.5478 192.805 31.5802 192.773C31.6125 192.741 31.6506 192.717 31.692 192.701C31.7335 192.685 31.7776 192.678 31.8216 192.68C31.8656 192.683 31.9087 192.695 31.9484 192.715C31.9881 192.735 32.0235 192.764 32.0525 192.799C32.0815 192.835 32.1036 192.876 32.1174 192.92C32.1174 192.962 33.5356 197.052 35.5871 198.109C35.6544 198.144 35.7086 198.202 35.7408 198.273C35.7731 198.345 35.7815 198.426 35.7646 198.503C35.7478 198.581 35.7066 198.65 35.648 198.699C35.5894 198.748 35.5167 198.775 35.442 198.774V198.796Z" fill="white"/>
<path d="M35.4024 201.597C35.3363 201.597 35.2718 201.575 35.2175 201.535C35.1633 201.495 35.1219 201.438 35.0989 201.373C35.0661 201.287 35.0664 201.191 35.0998 201.106C35.1331 201.021 35.1968 200.953 35.277 200.917C39.1293 199.279 41.5303 194.412 41.5567 194.356C41.597 194.273 41.6665 194.211 41.75 194.183C41.8335 194.154 41.9241 194.162 42.002 194.205C42.0798 194.248 42.1385 194.322 42.1651 194.41C42.1917 194.499 42.184 194.595 42.1438 194.678C42.0383 194.888 39.6042 199.832 35.5475 201.569C35.5023 201.591 35.4522 201.601 35.4024 201.597Z" fill="white"/>
<path d="M170.053 163.922C170.053 163.922 167.17 158.964 166.887 153.578C166.603 148.193 167.718 145.952 169.248 145.308C170.778 144.664 170.897 146.646 171.682 147.815C172.467 148.985 174.07 148.319 174.664 144.671C175.257 141.022 177.421 134.867 181.92 133.669C186.867 132.367 184.215 138.529 182.968 140.931C181.722 143.333 180.759 146.611 181.577 147.5C182.394 148.389 183.668 146.744 184.875 148.27C186.346 150.112 181.774 156.744 179.149 158.347L170.053 163.922Z" fill="#EEBBC3"/>
<path d="M174.004 161.842C173.961 161.84 173.918 161.829 173.879 161.81C173.839 161.79 173.804 161.763 173.775 161.729C173.745 161.696 173.722 161.656 173.707 161.613C173.692 161.569 173.686 161.524 173.687 161.478C174.134 152.815 176.679 144.421 181.075 137.108C181.1 137.07 181.132 137.037 181.169 137.013C181.206 136.988 181.247 136.972 181.291 136.964C181.334 136.957 181.378 136.959 181.42 136.971C181.462 136.982 181.502 137.003 181.537 137.031C181.606 137.085 181.652 137.166 181.666 137.257C181.679 137.347 181.659 137.439 181.609 137.514C177.292 144.72 174.793 152.985 174.354 161.513C174.351 161.559 174.34 161.604 174.321 161.645C174.302 161.687 174.276 161.724 174.243 161.754C174.211 161.785 174.173 161.808 174.132 161.823C174.091 161.838 174.047 161.845 174.004 161.842Z" fill="white"/>
<path d="M174.38 157.703C174.325 157.703 174.271 157.688 174.222 157.661C172.375 156.576 171.352 153.354 171.313 153.221C171.298 153.178 171.292 153.131 171.294 153.085C171.297 153.039 171.308 152.994 171.327 152.952C171.346 152.91 171.372 152.873 171.405 152.842C171.438 152.812 171.476 152.788 171.517 152.773C171.6 152.744 171.691 152.752 171.769 152.794C171.847 152.836 171.906 152.909 171.933 152.997C171.933 152.997 172.922 156.099 174.571 157.045C174.646 157.092 174.701 157.167 174.724 157.256C174.747 157.345 174.738 157.44 174.697 157.521C174.667 157.581 174.621 157.631 174.564 157.663C174.508 157.696 174.444 157.71 174.38 157.703Z" fill="white"/>
<path d="M174.703 155.581C174.63 155.58 174.559 155.554 174.502 155.506C174.445 155.457 174.404 155.39 174.387 155.315C174.376 155.271 174.373 155.225 174.379 155.18C174.386 155.135 174.4 155.091 174.422 155.052C174.444 155.013 174.474 154.979 174.508 154.952C174.543 154.925 174.582 154.906 174.624 154.895C179.387 153.613 181.036 150.966 181.049 150.938C181.072 150.899 181.103 150.865 181.138 150.839C181.174 150.812 181.214 150.793 181.257 150.783C181.299 150.773 181.343 150.772 181.386 150.78C181.429 150.788 181.47 150.805 181.507 150.83C181.544 150.855 181.576 150.887 181.601 150.925C181.626 150.963 181.644 151.005 181.653 151.051C181.663 151.096 181.664 151.143 181.656 151.188C181.649 151.234 181.633 151.277 181.609 151.317C181.537 151.436 179.822 154.216 174.789 155.574L174.703 155.581Z" fill="white"/>
<path d="M98.285 153.039C98.285 153.039 91.9591 151.401 91.6293 138.824C91.2797 125.252 93.1794 109.412 85.6926 108.13C78.2058 106.849 74.0501 116.534 74.1425 127.843C74.2282 137.745 77.9881 159.244 98.2586 163.459L98.285 153.039Z" fill="#EEBBC3"/>
<path opacity="0.2" d="M98.285 153.039C98.285 153.039 91.9591 151.401 91.6293 138.824C91.2797 125.252 93.1794 109.412 85.6926 108.13C78.2058 106.849 74.0501 116.534 74.1425 127.843C74.2282 137.745 77.9881 159.244 98.2586 163.459L98.285 153.039Z" fill="black"/>
<path d="M98.285 162.171H98.2256C93.6675 161.288 89.9538 158.62 87.19 154.251C78.9973 141.274 81.5765 117.045 82.4274 112.815C82.4465 112.725 82.4976 112.646 82.5702 112.595C82.6428 112.544 82.7311 112.525 82.8166 112.542C82.902 112.564 82.9763 112.619 83.0242 112.698C83.072 112.776 83.0898 112.87 83.0739 112.962C82.2361 117.164 79.6702 141.085 87.7375 153.858C88.9117 155.839 90.461 157.539 92.2869 158.851C94.1128 160.163 96.1756 161.057 98.3443 161.478C98.3874 161.486 98.4284 161.503 98.465 161.529C98.5017 161.554 98.5332 161.587 98.5578 161.625C98.5823 161.664 98.5994 161.707 98.6081 161.753C98.6167 161.798 98.6168 161.845 98.6082 161.891C98.5942 161.97 98.554 162.042 98.4948 162.094C98.4357 162.145 98.3613 162.172 98.285 162.171Z" fill="white"/>
<path d="M98.285 194.447C91.748 195.385 81.1346 195.371 75.0066 190.245C68.8786 185.119 70.1583 180.707 72.5132 178.866C74.8681 177.024 76.9129 174.923 72.8628 170.833C68.8127 166.744 62.3087 160.175 60.1979 150.322C58.0871 140.469 59.1293 134.307 63.2718 132.255C67.2889 130.266 68.3509 133.431 70.8114 139.958C73.2718 146.485 78.8061 140.889 83.5422 142.927C88.2784 144.965 88.0871 148.999 88.3839 152.465C88.6807 155.931 90.2441 156.891 92.9288 156.891C95.6135 156.891 98.285 158.529 98.285 161.793V194.447Z" fill="#EEBBC3"/>
<path d="M98.285 183.004C98.2567 183.011 98.2274 183.011 98.1992 183.004C97.9156 182.92 91.1544 180.833 81.3061 171.232C70.8179 161.008 65.8707 145.672 65.8179 145.518C65.7927 145.43 65.8005 145.335 65.8399 145.253C65.8792 145.17 65.947 145.107 66.029 145.077C66.1113 145.048 66.201 145.054 66.2787 145.095C66.3565 145.136 66.4161 145.207 66.4446 145.294C66.4908 145.448 71.3918 160.616 81.7546 170.714C91.4644 180.189 98.3047 182.311 98.3773 182.332C98.4189 182.345 98.4577 182.366 98.4914 182.395C98.5252 182.424 98.5533 182.459 98.5741 182.5C98.595 182.54 98.6081 182.584 98.6128 182.63C98.6175 182.676 98.6137 182.722 98.6016 182.766C98.5802 182.837 98.5378 182.898 98.4807 182.941C98.4236 182.984 98.3549 183.006 98.285 183.004Z" fill="white"/>
<path d="M84.0567 173.669C83.9904 173.671 83.9255 173.649 83.871 173.609C83.8166 173.569 83.7754 173.512 83.7533 173.445C81.6359 167.675 81.1544 155.329 81.1148 154.804C81.1129 154.712 81.1449 154.622 81.2039 154.554C81.263 154.486 81.3445 154.445 81.4314 154.44C81.5175 154.441 81.6002 154.476 81.6635 154.538C81.7268 154.6 81.7663 154.685 81.7744 154.776C81.7744 154.902 82.2691 167.528 84.347 173.193C84.3629 173.236 84.3705 173.283 84.3695 173.329C84.3684 173.375 84.3587 173.421 84.3409 173.463C84.3231 173.506 84.2976 173.544 84.2658 173.576C84.234 173.607 84.1966 173.632 84.1557 173.648C84.1238 173.661 84.0905 173.668 84.0567 173.669Z" fill="white"/>
<path d="M84.004 181.968C83.3958 181.973 82.7879 181.94 82.1834 181.87C82.1401 181.864 82.0982 181.85 82.0602 181.827C82.0222 181.804 81.9887 181.774 81.9618 181.737C81.9348 181.701 81.9149 181.659 81.9031 181.615C81.8913 181.57 81.8879 181.524 81.8931 181.478C81.8983 181.432 81.912 181.387 81.9334 181.347C81.9548 181.306 81.9834 181.271 82.0177 181.242C82.052 181.214 82.0913 181.193 82.1333 181.18C82.1753 181.168 82.2192 181.164 82.2625 181.169C82.3219 181.169 88.4631 181.912 91.2797 178.866C91.309 178.829 91.3452 178.799 91.386 178.777C91.4267 178.756 91.4712 178.744 91.5166 178.742C91.562 178.739 91.6074 178.747 91.6498 178.765C91.6922 178.782 91.7308 178.808 91.7632 178.842C91.7956 178.876 91.821 178.917 91.8379 178.961C91.8547 179.006 91.8627 179.054 91.8613 179.102C91.8599 179.151 91.8491 179.198 91.8296 179.242C91.8101 179.285 91.7823 179.324 91.748 179.356C89.7098 181.59 86.1544 181.968 84.004 181.968Z" fill="white"/>
<path d="M79.2546 49.3627L78.5422 45L74.8747 47.563C74.5396 46.8628 74.0646 46.2486 73.4829 45.7633L75.2375 40.7213L71.9393 39.944L69.5251 44.8459C68.6516 45.0024 67.8047 45.295 67.0119 45.7143L65.9631 42.0168L62.0449 45.2871L62.3021 49.6288C61.5042 50.5777 60.7806 51.5942 60.1385 52.6681L56.9063 52.493L54.6372 57.8921L57.4143 59.1527C57.1243 60.2694 56.9409 61.4143 56.8668 62.57L53.3377 66.0154L54.0435 70.3851L57.7177 67.8221C58.0509 68.5217 58.5263 69.134 59.1095 69.6148L57.3879 74.6639L60.686 75.4342L64.1425 71.8627C64.9406 71.7297 64.7428 70.133 65.6135 69.6779L66.6623 73.3613L70.5739 70.098L70.4749 68.3894C71.2665 67.451 74.2612 65.3851 74.9077 64.3067L75.719 62.9062L77.9881 57.507L76.9327 55.4762L75.7586 52.8291L79.2546 49.3627ZM67.2823 63.7255C64.2744 66.2325 63.3245 66.7857 62.8166 63.4314C62.3087 60.077 64.0304 54.979 67.0383 52.465C70.0462 49.951 71.1939 49.7759 71.7348 53.1232C72.2757 56.4706 70.2968 61.2465 67.2823 63.7255Z" fill="#E0E0E0"/>
<path d="M71.9657 39.944L76.2467 42.563L73.8324 47.451L69.5515 44.8319L71.9657 39.944Z" fill="#F5F5F5"/>
<path d="M82.8232 47.6191L79.1557 50.1821L74.8747 47.563L78.5422 45L82.8232 47.6191Z" fill="#F5F5F5"/>
<path d="M82.2361 60.105L79.4591 58.8515L75.1781 56.2325L77.9551 57.486L82.2361 60.105Z" fill="#E0E0E0"/>
<path d="M57.3813 74.6639L61.6623 77.2759L63.4169 72.2339L59.1359 69.6149L57.3813 74.6639Z" fill="#E0E0E0"/>
<path d="M70.9037 75.9804L66.6293 73.3613L65.5805 69.6779L69.8615 72.2969L70.9037 75.9804Z" fill="#E0E0E0"/>
<path d="M83.529 51.9818L82.8232 47.6191L79.1557 50.1821C78.8181 49.4815 78.3409 48.8674 77.7573 48.3824L79.5119 43.3404L76.2467 42.563L73.8259 47.465C72.9524 47.6214 72.1055 47.9141 71.3127 48.3334L70.2705 44.6499L66.3522 47.9202L66.6095 52.2619C65.8107 53.2175 65.0871 54.241 64.4459 55.3222L61.2071 55.1471L58.938 60.5462L61.715 61.8067C61.4278 62.9265 61.2444 64.0734 61.1676 65.2311L57.6451 68.6275L58.3509 72.9972L62.0185 70.4342C62.3561 71.1327 62.8334 71.7446 63.4169 72.2269L61.6623 77.2689L64.9604 78.0462L67.3747 73.1443C68.2515 72.9896 69.1011 72.6944 69.8945 72.2689L70.9367 75.9524L74.8549 72.6891L74.5976 68.3474C75.3955 67.3985 76.1191 66.382 76.7612 65.3081L80 65.4762L82.2691 60.0771L79.4525 58.8236C79.7445 57.7046 79.9301 56.5574 80.0066 55.3992L83.529 51.9818ZM71.5699 66.3726C68.5686 68.8796 65.6926 68.2003 65.1451 64.853C64.5976 61.5056 66.5963 56.7507 69.6042 54.2437C72.6121 51.7367 75.4815 52.423 76.029 55.7703C76.5765 59.1177 74.5778 63.8656 71.5699 66.3726Z" fill="#EBEBEB"/>
<path d="M70.2705 44.6358L65.9895 42.0168L62.0713 45.2871L66.3523 47.9061L70.2705 44.6358Z" fill="#F5F5F5"/>
<path d="M62.0713 45.2871L62.3285 49.6288L66.6095 52.2479L66.3523 47.9062L62.0713 45.2871Z" fill="#E0E0E0"/>
<path d="M64.4459 55.2871L60.1649 52.6681L56.9327 52.5L61.2071 55.1191L64.4459 55.2871Z" fill="#F5F5F5"/>
<path d="M56.9327 52.5L54.6636 57.8922L58.938 60.5112L61.2071 55.1191L56.9327 52.5Z" fill="#E0E0E0"/>
<path d="M61.1676 65.1891L56.8931 62.5701L53.3641 66.0154L57.6385 68.6345L61.1676 65.1891Z" fill="#F5F5F5"/>
<path d="M58.3509 73.0042L54.0699 70.3852L53.3641 66.0154L57.6385 68.6345L58.3509 73.0042Z" fill="#E0E0E0"/>
<path d="M76.2467 42.563L71.9657 39.944L75.2375 40.7213L79.5119 43.3403L76.2467 42.563Z" fill="#F5F5F5"/>
<path d="M60.0858 29.5588V23.0392L55.1979 25.3782C54.939 24.272 54.4919 23.2254 53.8786 22.2899L56.9591 15.7003L53.1992 13.3964L49.3602 19.5238C48.2903 19.4246 47.2124 19.5362 46.1807 19.8529L45.6399 14.1877L40.3232 17.451L39.7889 23.7535C38.6318 24.842 37.5679 26.0371 36.6095 27.3249L32.7705 25.9244L29.0106 32.8431L32.0844 35.6443C31.5165 37.1691 31.075 38.7437 30.7652 40.3501L25.8773 43.9986V50.5252L30.7652 48.1863C31.0241 49.2924 31.4712 50.339 32.0844 51.2745L29.0238 57.8712L32.7836 60.1751L36.6227 54.0476C37.6926 54.1465 38.7704 54.035 39.8021 53.7185L40.3364 59.3838L45.653 56.1205L46.1939 49.8179C47.8533 49.1752 49.3233 48.0784 50.4552 46.6387L53.2124 47.6681L56.9723 40.7563L54.6636 38.6555C55.1648 36.9036 55.3505 35.0672 55.2111 33.2423L60.0858 29.5588ZM42.9815 45.8473C38.905 48.3473 36.3852 46.5476 36.3852 41.5686C36.3852 36.5896 39.7559 30.4342 43.8391 27.9342C47.9222 25.4342 50.3892 27.2339 50.3892 32.2549C50.3892 37.2759 47.0647 43.3403 42.9815 45.8473Z" fill="#E0E0E0"/>
<path d="M57.4736 16.0084L53.1992 13.3964L49.3602 19.5238L53.6346 22.1429L57.4736 16.0084Z" fill="#F5F5F5"/>
<path d="M64.3668 25.6582L60.0858 23.0392L55.1979 25.3781L59.4789 27.9972L64.3668 25.6582Z" fill="#F5F5F5"/>
<path d="M44.5976 62.0028L40.3232 59.3838L39.7889 53.7185L44.0633 56.3375L44.5976 62.0028Z" fill="#E0E0E0"/>
<path d="M29.004 57.8711L33.285 60.4902L36.3654 53.9005L32.0844 51.2815L29.004 57.8711Z" fill="#E0E0E0"/>
<path d="M64.3668 32.2129V25.6933L59.4789 28.0113C59.2227 26.9041 58.7754 25.857 58.1596 24.923L61.2401 18.3334L57.4802 16.0225L53.6412 22.1569C52.5713 22.0542 51.4928 22.1659 50.4618 22.486L49.9209 16.8068L44.6042 20.0701L44.0633 26.3726C42.9079 27.4629 41.8441 28.6579 40.8839 29.944L37.0449 28.5435L33.285 35.4622L36.3654 38.2634C35.7945 39.7871 35.353 41.362 35.0462 42.9692L30.1583 46.6177V53.1443L35.0462 50.8054C35.3022 51.9126 35.7495 52.9597 36.3654 53.8936L33.285 60.4832L37.0449 62.7872L40.8839 56.6597C41.9538 56.7589 43.0317 56.6474 44.0633 56.3306L44.6042 61.9958L49.9209 58.7325L50.4552 52.43C51.6122 51.3416 52.6762 50.1464 53.6346 48.8586L57.4736 50.2592L61.2335 43.3474L58.1531 40.5463C58.7239 39.0225 59.1654 37.4476 59.4723 35.8404L64.3668 32.2129ZM47.2625 48.5014C43.1794 51.0014 39.8681 48.9706 39.8681 43.9706C39.8681 38.9706 43.1662 32.8852 47.2625 30.3782C51.3588 27.8712 54.6504 29.909 54.6504 34.909C54.6504 39.909 51.3391 45.9594 47.2625 48.4664V48.5014Z" fill="#EBEBEB"/>
<path d="M36.6095 27.339L40.8839 29.958L37.0449 28.5365L32.7705 25.9104L36.6095 27.339Z" fill="#F0F0F0"/>
<path d="M32.77 25.9175L29.0091 32.8386L33.2887 35.4596L37.0496 28.5385L32.77 25.9175Z" fill="#F5F5F5"/>
<path d="M29.004 32.8292L33.285 35.4482L36.3654 38.2633L32.0844 35.6513L29.004 32.8292Z" fill="#E0E0E0"/>
<path d="M30.7652 40.3572L35.0462 42.9762L30.1583 46.6247L25.8773 44.0056L30.7652 40.3572Z" fill="#F5F5F5"/>
<path d="M25.8773 44.0056L30.1583 46.6247V53.1513L25.8773 50.5322V44.0056Z" fill="#E0E0E0"/>
<path d="M49.9208 16.8067L45.6399 14.1876L40.3232 17.4509L44.5976 20.07L49.9208 16.8067Z" fill="#F5F5F5"/>
<path d="M104.802 203.816L166.807 165.805C166.944 165.754 167.062 165.66 167.146 165.534C167.23 165.409 167.275 165.259 167.275 165.105C167.275 164.951 167.23 164.801 167.146 164.676C167.062 164.55 166.944 164.456 166.807 164.405L161.075 160.903C160.72 160.714 160.328 160.615 159.931 160.615C159.533 160.615 159.141 160.714 158.786 160.903L96.7612 198.88C96.6246 198.93 96.5063 199.025 96.4226 199.151C96.3389 199.276 96.2939 199.426 96.2939 199.58C96.2939 199.734 96.3389 199.883 96.4226 200.009C96.5063 200.134 96.6246 200.229 96.7612 200.28L102.513 203.781C102.866 203.977 103.256 204.081 103.654 204.087C104.051 204.094 104.445 204.001 104.802 203.816Z" fill="#E0E0E0"/>
<path d="M165.106 19.0475L109.195 53.3192C108.364 53.8951 107.672 54.6706 107.176 55.5831C106.68 56.4956 106.393 57.5193 106.339 58.5713V199.377C106.339 201.309 107.619 202.094 109.195 201.127L165.106 166.856C165.938 166.281 166.63 165.506 167.127 164.593C167.623 163.68 167.909 162.656 167.962 161.604V20.7982C167.962 18.8655 166.689 18.0811 165.106 19.0475Z" fill="#455A64"/>
<path d="M109.195 53.3193L165.106 19.0476C166.517 18.1792 167.685 18.7184 167.922 20.2241C167.79 19.2774 167.471 18.3712 166.986 17.565C166.5 16.7587 165.859 16.0707 165.106 15.5462L162.784 14.1456C161.899 13.6689 160.92 13.4204 159.927 13.4204C158.935 13.4204 157.956 13.6689 157.071 14.1456L101.154 48.3893C100.312 48.9499 99.6177 49.7282 99.1359 50.6512L107.177 55.5532C107.658 54.6374 108.353 53.8683 109.195 53.3193Z" fill="#37474F"/>
<path d="M98.285 194.447C98.3391 195.499 98.6259 196.522 99.1221 197.435C99.6184 198.347 100.31 199.123 101.141 199.699L103.47 201.099C104.276 201.527 105.158 201.77 106.058 201.811C106.958 201.852 107.856 201.691 108.694 201.337C107.375 201.884 106.326 201.078 106.326 199.349V58.5714C106.359 57.5148 106.647 56.4851 107.164 55.5812L99.1227 50.6792C98.6137 51.5763 98.3256 52.595 98.285 53.6414V194.447Z" fill="#263238"/>
<path d="M110.732 72.0798L163.588 39.6918C164.538 39.1176 165.303 39.5868 165.303 40.7422V144.958C165.272 145.589 165.1 146.204 164.802 146.752C164.504 147.299 164.088 147.765 163.588 148.109L110.752 180.497C109.802 181.078 109.037 180.609 109.037 179.447V75.231C109.067 74.6014 109.236 73.9881 109.531 73.4407C109.825 72.8933 110.237 72.4271 110.732 72.0798Z" fill="white"/>
<path d="M137.15 41.5196C136.859 41.7229 136.616 41.9961 136.442 42.3173C136.268 42.6384 136.167 42.9984 136.148 43.3683C136.148 44.0686 136.596 44.3277 137.15 43.9846C137.443 43.7825 137.687 43.5096 137.861 43.1882C138.035 42.8668 138.135 42.5062 138.153 42.1358C138.153 41.4566 137.705 41.1835 137.15 41.5196Z" fill="#37474F"/>
<path d="M137.15 169.286C135.997 170.086 135.038 171.164 134.35 172.432C133.663 173.7 133.266 175.122 133.193 176.583C133.193 179.265 134.967 180.357 137.15 179.013C138.303 178.211 139.262 177.133 139.95 175.866C140.637 174.598 141.034 173.176 141.108 171.716C141.121 169.034 139.34 167.941 137.15 169.286Z" fill="#37474F"/>
<path d="M127.658 52.3599C127.079 52.7684 126.597 53.3159 126.254 53.9582C125.91 54.6005 125.713 55.3195 125.679 56.0574C125.679 57.4159 126.577 57.9691 127.658 57.2899C128.244 56.8852 128.732 56.3394 129.081 55.6969C129.431 55.0544 129.633 54.3333 129.67 53.5924C129.67 52.2338 128.773 51.6806 127.658 52.3599Z" fill="#37474F"/>
<path d="M132.586 51.8977C132.586 52.8081 133.245 53.1512 134.017 52.668L147.21 44.5658C147.618 44.2948 147.961 43.9253 148.21 43.4872C148.459 43.0491 148.606 42.5549 148.641 42.0448C148.641 41.1414 147.982 40.7983 147.21 41.2815L134.017 49.3837C133.609 49.654 133.267 50.0224 133.019 50.4592C132.77 50.8959 132.622 51.3888 132.586 51.8977Z" fill="#37474F"/>
<path d="M102.744 76.5896C103.212 76.9133 103.602 77.3495 103.881 77.863C104.161 78.3764 104.323 78.9526 104.354 79.5448C104.354 80.6372 103.635 81.0784 102.744 80.5322C102.278 80.2073 101.889 79.7706 101.611 79.2573C101.333 78.744 101.172 78.1684 101.141 77.577C101.141 76.4915 101.86 76.0504 102.744 76.5896Z" fill="#37474F"/>
<path d="M102.744 89.7409C103.212 90.0646 103.602 90.5008 103.881 91.0143C104.161 91.5277 104.323 92.1039 104.354 92.6961C104.354 93.7815 103.635 94.2227 102.744 93.6835C102.278 93.3586 101.889 92.9219 101.611 92.4086C101.333 91.8953 101.172 91.3197 101.141 90.7283C101.141 89.6358 101.86 89.1947 102.744 89.7409Z" fill="#37474F"/>
<path d="M102.243 76.8557C102.711 77.1794 103.101 77.6156 103.38 78.1291C103.66 78.6425 103.822 79.2187 103.852 79.8109C103.852 80.8963 103.133 81.3375 102.243 80.7983C101.775 80.4746 101.385 80.0383 101.105 79.5249C100.826 79.0114 100.664 78.4353 100.633 77.8431C100.64 76.7507 101.359 76.3305 102.243 76.8557Z" fill="#455A64"/>
<path d="M102.243 90C102.712 90.3244 103.102 90.7617 103.382 91.2765C103.661 91.7912 103.823 92.3688 103.852 92.9622C103.852 94.0476 103.133 94.4888 102.243 93.9426C101.774 93.6201 101.383 93.1841 101.103 92.6704C100.823 92.1567 100.662 91.5799 100.633 90.9874C100.64 89.9019 101.359 89.4608 102.243 90Z" fill="#455A64"/>
<path d="M176.003 44.0406C176.003 42.8781 175.237 42.4089 174.288 42.9901L167.962 46.8627L121.451 75.3781C120.952 75.7227 120.536 76.1878 120.238 76.7354C119.94 77.2831 119.768 77.8978 119.736 78.5294V182.717C119.736 183.88 120.501 184.349 121.451 183.767L167.982 155.245L174.288 151.38C174.787 151.035 175.203 150.57 175.501 150.022C175.799 149.475 175.971 148.86 176.003 148.228V44.0406Z" fill="white"/>
<path d="M176.662 44.0406C176.704 43.6894 176.647 43.333 176.499 43.016C176.35 42.699 176.117 42.4354 175.829 42.2583C175.54 42.0812 175.209 41.9983 174.876 42.0201C174.543 42.0419 174.224 42.1674 173.958 42.3809L167.922 46.0854L121.121 74.7969C120.519 75.2006 120.018 75.7539 119.662 76.4091C119.305 77.0642 119.105 77.8015 119.077 78.5574V182.717C119.05 183.067 119.113 183.417 119.26 183.732C119.406 184.046 119.63 184.313 119.908 184.503C120.144 184.648 120.413 184.724 120.686 184.72C121.073 184.707 121.45 184.589 121.781 184.377L168.615 155.665L174.637 151.975C175.236 151.567 175.735 151.013 176.09 150.358C176.446 149.704 176.649 148.969 176.682 148.214L176.662 44.0406ZM167.935 154.468L167.394 154.804L121.148 183.151C121.07 183.215 120.98 183.259 120.884 183.281C120.788 183.302 120.689 183.301 120.594 183.277C120.508 183.221 120.422 183.025 120.422 182.703V78.5294C120.456 78.0209 120.599 77.5273 120.839 77.0857C121.079 76.6442 121.41 76.2662 121.807 75.9803L168.008 47.619L174.604 43.5644C174.682 43.501 174.772 43.4568 174.868 43.435C174.964 43.4132 175.063 43.4143 175.158 43.4383C175.244 43.4943 175.33 43.6904 175.33 44.0125V148.228C175.296 148.737 175.153 149.23 174.913 149.672C174.673 150.113 174.342 150.491 173.945 150.777L167.922 154.468H167.935Z" fill="#EEBBC3"/>
<path d="M147.869 68.2493C153.806 64.6218 158.588 67.549 158.588 74.8249C158.588 82.1008 153.786 90.9313 147.869 94.5308C141.953 98.1302 137.15 95.2311 137.15 87.9621C137.15 80.6932 141.953 71.8837 147.869 68.2493Z" fill="#EEBBC3"/>
<path d="M147.869 73.9636C149.789 72.7871 151.346 73.7395 151.346 76.0644C151.28 77.3452 150.932 78.5916 150.328 79.7025C149.724 80.8134 148.881 81.7574 147.869 82.458C145.95 83.6344 144.393 82.682 144.393 80.3571C144.458 79.0763 144.807 77.8299 145.411 76.719C146.015 75.6082 146.857 74.6641 147.869 73.9636Z" fill="#EEBBC3"/>
<path d="M154.644 86.5125C154.644 82.647 152.091 81.0784 148.931 83.0111L146.953 84.2226C143.799 86.1554 141.24 90.8613 141.24 94.7268V95.7702C143.067 96.4075 145.363 96.0644 147.836 94.5308C150.577 92.7364 152.894 90.3003 154.611 87.4089L154.644 86.5125Z" fill="#EEBBC3"/>
<path opacity="0.7" d="M147.869 73.9636C149.789 72.7871 151.346 73.7395 151.346 76.0644C151.28 77.3452 150.932 78.5916 150.328 79.7025C149.724 80.8134 148.881 81.7574 147.869 82.458C145.95 83.6344 144.393 82.682 144.393 80.3571C144.458 79.0763 144.807 77.8299 145.411 76.719C146.015 75.6082 146.857 74.6641 147.869 73.9636Z" fill="white"/>
<path opacity="0.7" d="M154.644 86.5125C154.644 82.647 152.091 81.0784 148.931 83.0111L146.953 84.2226C143.799 86.1554 141.24 90.8613 141.24 94.7268V95.7702C143.067 96.4075 145.363 96.0644 147.836 94.5308C150.577 92.7364 152.894 90.3003 154.611 87.4089L154.644 86.5125Z" fill="white"/>
<path d="M127.131 110.532L140.923 102.08C141.583 101.695 142.065 102.003 142.065 102.78V103.263C142.044 103.684 141.93 104.094 141.731 104.459C141.533 104.824 141.256 105.134 140.923 105.364L127.131 113.817C126.504 114.202 125.989 113.887 125.989 113.116V112.633C126.011 112.212 126.125 111.803 126.324 111.438C126.522 111.073 126.798 110.763 127.131 110.532Z" fill="#EEBBC3"/>
<path opacity="0.1" d="M127.131 110.532L140.923 102.08C141.583 101.695 142.065 102.003 142.065 102.78V103.263C142.044 103.684 141.93 104.094 141.731 104.459C141.533 104.824 141.256 105.134 140.923 105.364L127.131 113.817C126.504 114.202 125.989 113.887 125.989 113.116V112.633C126.011 112.212 126.125 111.803 126.324 111.438C126.522 111.073 126.798 110.763 127.131 110.532Z" fill="black"/>
<path d="M126.563 120.735L168.292 95.161C168.602 94.965 168.859 95.119 168.859 95.5112V100.679C168.847 100.889 168.79 101.093 168.692 101.275C168.593 101.458 168.456 101.613 168.292 101.73L126.563 127.304C126.247 127.5 125.989 127.339 125.989 126.954V121.786C126.001 121.575 126.059 121.37 126.158 121.188C126.258 121.005 126.397 120.85 126.563 120.735Z" fill="#EEBBC3"/>
<path opacity="0.2" d="M126.563 120.735L168.292 95.161C168.602 94.965 168.859 95.119 168.859 95.5112V100.679C168.847 100.889 168.79 101.093 168.692 101.275C168.593 101.458 168.456 101.613 168.292 101.73L126.563 127.304C126.247 127.5 125.989 127.339 125.989 126.954V121.786C126.001 121.575 126.059 121.37 126.158 121.188C126.258 121.005 126.397 120.85 126.563 120.735Z" fill="white"/>
<path d="M127.131 133.522L140.923 125.07C141.583 124.685 142.065 125 142.065 125.77V126.253C142.044 126.674 141.93 127.084 141.732 127.45C141.534 127.815 141.257 128.125 140.923 128.354L127.131 136.807C126.504 137.199 125.989 136.884 125.989 136.106V135.623C126.012 135.203 126.127 134.794 126.325 134.429C126.523 134.064 126.799 133.754 127.131 133.522Z" fill="#EEBBC3"/>
<path opacity="0.1" d="M127.131 133.522L140.923 125.07C141.583 124.685 142.065 125 142.065 125.77V126.253C142.044 126.674 141.93 127.084 141.732 127.45C141.534 127.815 141.257 128.125 140.923 128.354L127.131 136.807C126.504 137.199 125.989 136.884 125.989 136.106V135.623C126.012 135.203 126.127 134.794 126.325 134.429C126.523 134.064 126.799 133.754 127.131 133.522Z" fill="black"/>
<path d="M126.563 143.725L168.292 118.151C168.602 117.955 168.859 118.116 168.859 118.501V123.669C168.847 123.879 168.79 124.083 168.692 124.265C168.593 124.448 168.456 124.603 168.292 124.72L126.563 150.294C126.247 150.49 125.989 150.336 125.989 149.944V144.776C126.001 144.565 126.059 144.36 126.158 144.178C126.258 143.996 126.397 143.84 126.563 143.725Z" fill="#EEBBC3"/>
<path opacity="0.2" d="M126.563 143.725L168.292 118.151C168.602 117.955 168.859 118.116 168.859 118.501V123.669C168.847 123.879 168.79 124.083 168.692 124.265C168.593 124.448 168.456 124.603 168.292 124.72L126.563 150.294C126.247 150.49 125.989 150.336 125.989 149.944V144.776C126.001 144.565 126.059 144.36 126.158 144.178C126.258 143.996 126.397 143.84 126.563 143.725Z" fill="white"/>
<path d="M143.206 146.66L159.697 136.569C160.356 136.176 160.844 136.492 160.844 137.269V142.675C160.823 143.096 160.707 143.507 160.508 143.872C160.308 144.237 160.03 144.547 159.697 144.776L143.206 154.874C142.546 155.259 142.065 154.944 142.065 154.174V148.76C142.088 148.34 142.203 147.931 142.401 147.567C142.599 147.202 142.875 146.891 143.206 146.66Z" fill="#EEBBC3"/>
<path opacity="0.1" d="M143.206 146.66L159.697 136.569C160.356 136.176 160.844 136.492 160.844 137.269V142.675C160.823 143.096 160.707 143.507 160.508 143.872C160.308 144.237 160.03 144.547 159.697 144.776L143.206 154.874C142.546 155.259 142.065 154.944 142.065 154.174V148.76C142.088 148.34 142.203 147.931 142.401 147.567C142.599 147.202 142.875 146.891 143.206 146.66Z" fill="black"/>
<path d="M182.256 123.845C182.256 123.845 174.156 111.982 173.681 110.539C173.305 109.475 173.681 107.892 173.8 107.157C173.918 106.422 174.024 104.783 174.143 104.356C174.34 103.557 173.371 103.718 172.823 104.447C172.276 105.175 172.091 106.632 171.807 106.87C171.524 107.108 169.367 103.767 168.239 102.227C167.111 100.686 166.405 99.7479 165.712 100.322C165.218 100.735 165.587 101.632 166.405 102.948C166.883 103.657 167.323 104.394 167.724 105.154C167.85 105.441 167.177 105.462 166.814 106.057C166.53 106.52 166.814 107.269 166.418 107.626C166.175 107.823 166.008 108.108 165.949 108.427C165.891 108.746 165.945 109.076 166.102 109.356C166.836 110.58 167.783 111.645 168.892 112.493C170.106 113.382 170.594 113.697 171.313 114.909C172.032 116.12 178.483 128.494 178.918 129.237C179.354 129.979 180.191 131.492 181.464 131.534C182.737 131.576 193.16 122.052 193.694 121.576C195.409 120.056 195.956 119.839 196.247 121.204C196.347 121.69 196.422 122.181 196.471 122.675C196.675 124.412 197.79 130.616 197.79 130.616C197.79 130.616 203.067 133.326 207.401 132.017C211.735 130.707 213.199 128.753 213.199 128.753L211.029 125C211.616 123.452 214.327 117.178 215.205 112.787L201.616 110.455C201.339 110.392 200.891 110.273 200.297 110.112C199.551 109.902 197.658 109.209 196.227 110.539C191.557 114.86 182.269 123.845 182.269 123.845" fill="#FFA8A7"/>
<path d="M209.195 196.632L206.761 200.224C207.867 200.772 209.076 201.048 210.297 201.029C212.48 201.113 213.08 200.329 213.16 200.175C213.529 199.335 212.955 197.822 212.797 196.52L209.195 196.632Z" fill="#37474F"/>
<path d="M206.9 198.501C206.9 198.501 203.945 198.298 201.906 198.032C199.868 197.766 198.252 198.816 198.727 199.706C199.202 200.595 200.33 201.337 202.084 201.961C203.582 202.5 205.383 202.885 206.939 203.361C208.496 203.837 209.578 204.461 210.482 204.125C211.491 203.753 211.926 203.326 211.84 202.542C211.62 201.426 211.347 200.323 211.022 199.237L206.9 198.501Z" fill="#37474F"/>
<path d="M213.16 193.025C213.16 193.025 212.79 196.288 212.764 196.989C212.737 197.689 209.763 197.913 209.195 196.632L209.103 192.64L213.16 193.025Z" fill="#F28F8F"/>
<path d="M210.165 195.028L211.227 199.986C211.227 199.986 211.326 200.588 208.898 200.973C206.471 201.358 202.658 199.622 202.005 199.272C201.352 198.922 201.28 198.214 203.668 198.354C206.055 198.494 206.9 198.501 206.9 198.501L206.121 196.309L210.165 195.028Z" fill="#FFA8A7"/>
<path d="M215.165 112.745L216.847 112.248C216.847 112.248 220.363 124.062 220.752 125.203C221.141 126.345 221.583 127.549 220.825 128.957C219.921 130.63 215.165 137.36 215.165 137.36L212.144 134.223L215.574 127.556L212.54 121.043L215.165 112.745Z" fill="#F28F8F"/>
<path d="M197.889 97.4019C197.495 96.616 197.295 95.7368 197.307 94.8465C197.32 93.9561 197.545 93.0838 197.962 92.3109C199.637 89.0126 203.371 87.4089 207.817 88.0182C209.875 88.3053 212.302 90.119 213.628 92.8291C215.092 95.8333 215.231 101.884 215.607 104.174L197.889 97.4019Z" fill="#37474F"/>
<path d="M197.77 98.6974C197.77 98.6974 196.715 100.833 196.9 101.029C197.173 101.199 197.472 101.317 197.784 101.38L197.77 98.6974Z" fill="#FFA8A7"/>
<path d="M200.976 91.9468C199.829 92.7381 197.85 94.1947 197.764 98.9916C197.672 103.894 198.331 105.511 199.017 106.078C199.479 106.464 202.19 106.267 203.351 105.98C204.512 105.693 207.856 103.936 209.063 101.267C210.482 98.1302 210.191 93.5644 208.087 92.1639C207.016 91.4915 205.802 91.1189 204.558 91.0809C203.314 91.043 202.082 91.3409 200.976 91.9468Z" fill="#FFA8A7"/>
<path d="M213.16 128.725C215.191 132.087 217.117 135.028 217.54 138.823C218.41 146.8 215.561 155.917 214.947 161.821C216.101 163.5 216.766 165.501 216.86 167.577C216.86 170.021 213.16 193.025 213.16 193.025C213.16 193.025 210.468 193.894 209.103 192.64L206.563 150.322L207.883 145.168L213.16 128.725Z" fill="#EEBBC3"/>
<path opacity="0.2" d="M213.16 128.725C215.191 132.087 217.117 135.028 217.54 138.823C218.41 146.8 215.561 155.917 214.947 161.821C216.101 163.5 216.766 165.501 216.86 167.577C216.86 170.021 213.16 193.025 213.16 193.025C213.16 193.025 210.468 193.894 209.103 192.64L206.563 150.322L207.883 145.168L213.16 128.725Z" fill="black"/>
<path d="M206.563 150.322L207.883 145.168C210.409 144.462 212.845 143.435 215.139 142.108C215.139 142.108 213.766 144.762 209.822 146.218L207.784 152.836L207.612 167.997L206.563 150.322Z" fill="#EEBBC3"/>
<path opacity="0.3" d="M206.563 150.322L207.883 145.168C210.409 144.462 212.845 143.435 215.139 142.108C215.139 142.108 213.766 144.762 209.822 146.218L207.784 152.836L207.612 167.997L206.563 150.322Z" fill="black"/>
<path d="M213.16 128.725C214.248 130.616 216.847 133.837 216.293 136.94C215.633 140.693 213.72 143.333 207.902 145.168L202.441 166.176C202.441 166.176 205.284 168.978 206.154 171.688C207.025 174.398 210.165 195.042 210.165 195.042C210.165 195.042 209.189 196.73 206.121 196.324C206.121 196.324 195.429 170.413 194.677 168.725C193.764 167.016 193.444 165.022 193.773 163.088C194.11 160.371 197.731 130.63 197.731 130.63L213.16 128.725Z" fill="#EEBBC3"/>
<path opacity="0.2" d="M213.16 128.725C214.248 130.616 216.847 133.837 216.293 136.94C215.633 140.693 213.72 143.333 207.902 145.168L202.441 166.176C202.441 166.176 205.284 168.978 206.154 171.688C207.025 174.398 210.165 195.042 210.165 195.042C210.165 195.042 209.189 196.73 206.121 196.324C206.121 196.324 195.429 170.413 194.677 168.725C193.764 167.016 193.444 165.022 193.773 163.088C194.11 160.371 197.731 130.63 197.731 130.63L213.16 128.725Z" fill="black"/>
<path d="M215.165 112.745L201.577 110.413C201.299 110.35 200.851 110.231 200.257 110.07C200.257 110.07 199.677 119.118 196.187 121.19C196.273 121.625 196.346 122.108 196.412 122.661C196.616 124.398 197.731 130.602 197.731 130.602C197.731 130.602 203.008 133.312 207.342 132.003C211.675 130.693 213.14 128.739 213.14 128.739L210.97 124.986C211.577 123.424 214.307 117.15 215.165 112.745Z" fill="#EEBBC3"/>
<path opacity="0.7" d="M215.165 112.745L201.577 110.413C201.299 110.35 200.851 110.231 200.257 110.07C200.257 110.07 199.677 119.118 196.187 121.19C196.273 121.625 196.346 122.108 196.412 122.661C196.616 124.398 197.731 130.602 197.731 130.602C197.731 130.602 203.008 133.312 207.342 132.003C211.675 130.693 213.14 128.739 213.14 128.739L210.97 124.986C211.577 123.424 214.307 117.15 215.165 112.745Z" fill="white"/>
<path d="M211.583 123.494C209.779 124.645 207.888 125.636 205.93 126.457C207.707 126.419 209.447 125.908 210.989 124.972L211.583 123.494Z" fill="#EEBBC3"/>
<path d="M200.64 92.1849C200.64 92.1849 199.98 96.7367 201.537 99.4118C201.537 99.4118 202.117 97.598 203.562 97.9412C205.007 98.2843 205.086 100.308 204.07 101.443C203.812 101.761 203.474 101.995 203.096 102.119C202.718 102.243 202.315 102.251 201.933 102.143C201.933 102.143 201.702 105.434 201.577 108.193C201.451 110.952 200.765 116.968 203.687 119.398C206.61 121.828 213.945 122.682 217.381 117.584C219.294 114.748 216.755 109.734 215.574 104.111C214.486 98.9426 213.872 91.2815 208.707 90.049C203.542 88.8165 200.64 92.1849 200.64 92.1849Z" fill="#37474F"/>
<path d="M219.591 29.993L218.503 30.6933C218.594 30.2822 218.645 29.8621 218.654 29.4398C218.654 27.0939 217.104 26.1485 215.191 27.339C214.609 27.7118 214.09 28.1851 213.654 28.7395C213.654 25.5883 211.57 24.3068 208.997 25.8824C207.642 26.821 206.514 28.0856 205.704 29.5736C204.895 31.0616 204.428 32.7312 204.34 34.4468C204.34 34.6079 204.34 34.762 204.34 34.916C203.678 34.8275 203.007 34.9912 202.447 35.3782C201.439 36.0755 200.6 37.0153 199.999 38.1213C199.397 39.2273 199.049 40.4684 198.984 41.7437C198.984 42.0402 199.013 42.3359 199.07 42.6261L198.489 42.9832C196.913 43.9496 195.633 45.8334 195.633 47.1849C195.633 48.5365 196.913 48.8586 198.489 47.8852L219.598 34.965C221.174 33.9986 222.454 32.1149 222.454 30.7634C222.454 29.4118 221.168 29.0197 219.591 29.993Z" fill="#EBEBEB"/>
</svg>
