<?xml version="1.0" encoding="UTF-8"?>
<svg version="1.1" xmlns="http://www.w3.org/2000/svg" width="2048" height="2047">
<path d="M0 0 C1.91724512 -0.00330466 3.83448956 -0.00703149 5.75173312 -0.01114148 C10.99684826 -0.02110167 16.24195196 -0.02486859 21.48707521 -0.02753079 C27.15421997 -0.03145187 32.82135583 -0.04102905 38.48849487 -0.04974365 C52.1656434 -0.06946021 65.84279261 -0.07956944 79.51995179 -0.08847144 C85.97551901 -0.09286336 92.43108541 -0.09822792 98.88665199 -0.10346031 C120.37328673 -0.12046991 141.8599202 -0.134985 163.34656048 -0.14220905 C164.73455953 -0.14268379 166.12255859 -0.14315968 167.51055764 -0.14363671 C168.54294417 -0.14399128 168.54294417 -0.14399128 169.59618699 -0.14435301 C173.08266409 -0.14555408 176.56914119 -0.14676957 180.05561829 -0.147995 C181.09343333 -0.14835522 181.09343333 -0.14835522 182.15221433 -0.14872272 C204.54022731 -0.15660022 226.92818704 -0.18000073 249.3161768 -0.21255094 C273.03999421 -0.24697966 296.76377398 -0.2665713 320.48761779 -0.26985329 C333.39775124 -0.27200896 346.30780648 -0.28061811 359.21791649 -0.30631447 C370.22130109 -0.32816618 381.22458848 -0.3360016 392.22799232 -0.32634769 C397.82805183 -0.32184413 403.42791139 -0.32345501 409.02794266 -0.34310913 C443.4020725 -0.45687611 475.88537406 2.38587122 509.57881165 9.44306946 C512.62241234 10.06728681 515.6685459 10.63928876 518.72676086 11.18623352 C560.60519761 18.97827844 602.99897012 37.63746078 637.01191711 63.14717102 C637.75441711 63.68857727 638.49691711 64.22998352 639.26191711 64.78779602 C657.90529942 78.46963303 675.9802735 94.69250931 690.01191711 113.14717102 C691.38446689 114.83666454 692.75949802 116.52414502 694.13691711 118.20967102 C697.1721327 122.00369051 699.95366358 125.8824484 702.59394836 129.95967102 C703.50775529 131.36940072 704.44138506 132.76657267 705.39863586 134.14717102 C710.08899103 140.93212316 714.02110321 148.12784408 718.00605774 155.33955383 C718.84281762 156.84328446 719.6984616 158.33648799 720.55879211 159.82685852 C723.06027654 164.16585312 725.02693195 168.5049374 726.8026886 173.18647766 C728.1584722 176.5059987 729.71839384 179.68754169 731.29316711 182.90888977 C735.2119811 191.14916715 737.98980687 199.61746519 740.63691711 208.33467102 C741.11674367 209.89385675 741.59664354 211.45301993 742.07661438 213.01216125 C748.07234075 232.60265652 752.20759289 251.83426989 755.01191711 272.14717102 C755.15371399 273.1316925 755.29551086 274.11621399 755.44160461 275.13056946 C758.73518557 298.06911798 760.14722048 321.17188647 760.30845642 344.33427429 C760.3188634 345.80161908 760.33360853 347.26894146 760.35331726 348.7361908 C760.63391337 372.6963103 754.97470126 393.64465816 738.13691711 411.39717102 C723.49249371 425.30369712 704.86413645 431.68823986 684.83857727 431.57124329 C676.86605674 431.31939915 669.57848189 429.57554781 662.01191711 427.14717102 C660.9535968 426.81974915 659.89527649 426.49232727 658.80488586 426.15498352 C651.24927459 423.44169716 645.80240833 419.06886153 639.92207336 413.76826477 C637.1421403 411.17977433 637.1421403 411.17977433 634.44941711 409.25263977 C631.30210049 406.53404416 629.20854425 403.49013315 626.94941711 400.02217102 C626.29090759 399.01476868 626.29090759 399.01476868 625.61909485 397.98701477 C615.57049718 382.2859632 614.62291093 365.63547645 614.53138733 347.47392273 C614.3114907 312.72508513 612.33856805 274.43922907 598.01191711 242.14717102 C597.64163391 241.30380188 597.27135071 240.46043274 596.8898468 239.59150696 C592.40440579 229.50549941 587.81577147 219.89272859 581.01191711 211.14717102 C580.16306946 209.89033508 580.16306946 209.89033508 579.29707336 208.60810852 C575.30359826 202.74876027 570.81083427 197.66147424 565.82441711 192.64717102 C565.23007874 192.04743469 564.63574036 191.44769836 564.02339172 190.82978821 C560.87371708 187.73087917 557.89508296 185.30946106 554.01191711 183.14717102 C552.4198286 181.950397 550.83706527 180.7411551 549.26191711 179.52217102 C535.86880125 169.71617502 519.49124803 161.55559078 503.30488586 157.92060852 C500.1059876 157.16926587 496.97734483 156.28416863 493.82466125 155.36323547 C457.48851248 144.80970718 419.99356818 144.83449102 382.48095739 144.88572168 C377.46451334 144.89033129 372.44808196 144.88322124 367.43164062 144.87776184 C357.65364244 144.86895525 347.87567528 144.87075028 338.09767597 144.87658712 C330.13821009 144.88113822 322.17875278 144.88170178 314.21928596 144.87953949 C313.07844599 144.87923302 311.93760601 144.87892656 310.76219513 144.8786108 C308.44327715 144.87797124 306.12435918 144.87732281 303.80544121 144.87666562 C282.15623815 144.87098799 260.50705213 144.87747979 238.85785187 144.88826635 C220.35442955 144.89720072 201.85103234 144.89564574 183.34761047 144.88642883 C161.76451521 144.87568263 140.1814348 144.87153581 118.59833723 144.87765336 C116.28913566 144.87829034 113.97993408 144.87891908 111.6707325 144.87953949 C109.96728376 144.88000232 109.96728376 144.88000232 108.22942192 144.88047449 C100.295654 144.88218835 92.36189564 144.87931492 84.4281292 144.87458038 C74.73653833 144.86892294 65.04497978 144.87058877 55.35339253 144.88114187 C50.42575744 144.88633387 45.49817586 144.88856861 40.57054138 144.88184357 C22.79393461 144.8597231 5.05806514 144.93310767 -12.69021606 146.02662659 C-13.94052048 146.10252699 -15.19082489 146.17842739 -16.47901732 146.2566278 C-37.35467245 147.70271083 -57.19151732 152.56423587 -76.98808289 159.14717102 C-77.75604187 159.39048157 -78.52400085 159.63379211 -79.31523132 159.88447571 C-88.85161561 162.93958196 -97.66303279 167.38511122 -106.55058289 171.95967102 C-107.53993835 172.45531555 -108.52929382 172.95096008 -109.54862976 173.46162415 C-115.07952718 176.31332109 -119.6856026 179.31774321 -124.23564148 183.56440735 C-125.98808289 185.14717102 -125.98808289 185.14717102 -129.08573914 187.20185852 C-132.60202322 189.55866804 -135.45566779 192.27225232 -138.42558289 195.27217102 C-138.99687927 195.84765686 -139.56817566 196.4231427 -140.15678406 197.0160675 C-144.72429458 201.7058814 -148.45352242 206.637415 -151.98808289 212.14717102 C-152.90073914 213.40787415 -152.90073914 213.40787415 -153.83183289 214.69404602 C-163.28348161 227.97136209 -170.13356189 243.26757157 -174.39189148 258.96992493 C-175.05896392 261.40602321 -175.7671311 263.82849113 -176.47636414 266.25263977 C-186.82112975 302.18438082 -187.14370606 337.63788268 -187.11880755 374.7192899 C-187.11651991 379.77119968 -187.12004962 384.82310616 -187.12278748 389.87501526 C-187.12720862 399.74126165 -187.12628504 409.60750039 -187.12337483 419.47374707 C-187.12110623 427.50073865 -187.12081457 435.52772811 -187.12189865 443.55471992 C-187.1221285 445.27563995 -187.1221285 445.27563995 -187.12236299 447.03132604 C-187.12268276 449.36282221 -187.12300697 451.69431838 -187.12333558 454.02581454 C-187.1261797 475.83257762 -187.12292022 497.63933648 -187.11753522 519.44609887 C-187.11306875 538.11021162 -187.11384389 556.77431815 -187.11845398 575.43843079 C-187.12381969 597.17152908 -187.12590448 618.90462369 -187.12284172 640.63772255 C-187.12252321 642.96041715 -187.12220883 645.28311175 -187.12189865 647.60580635 C-187.12174438 648.74827852 -187.1215901 649.8907507 -187.12143115 651.06784324 C-187.12057193 659.07388002 -187.122016 667.07991444 -187.1243782 675.08595085 C-187.12719865 684.85888502 -187.12639097 694.63181117 -187.12109746 704.40474444 C-187.11849044 709.37991165 -187.11740377 714.35506554 -187.12074661 719.33023262 C-187.6252679 755.60435337 -187.6252679 755.60435337 -184.30058289 791.64717102 C-184.04438171 793.3094574 -184.04438171 793.3094574 -183.78300476 795.00532532 C-182.04763286 805.71363551 -179.52347525 816.18375626 -176.66679382 826.64277649 C-176.08313777 828.79642535 -175.53078241 830.95370444 -174.99589539 833.11982727 C-172.44214886 842.96192118 -168.31198339 851.98249473 -163.98808289 861.14717102 C-163.6846698 861.8031427 -163.38125671 862.45911438 -163.06864929 863.13496399 C-159.17455592 871.53044646 -154.63544776 878.83260071 -148.98808289 886.14717102 C-148.54335632 886.79556946 -148.09862976 887.4439679 -147.64042664 888.11201477 C-134.8112702 906.66917377 -115.30628376 919.16197996 -94.98808289 928.14717102 C-94.26475769 928.47668762 -93.5414325 928.80620422 -92.79618835 929.14570618 C-81.35074958 934.26932263 -69.59904226 937.40545838 -57.36308289 939.95967102 C-56.70092773 940.10083344 -56.03877258 940.24199585 -55.35655212 940.38743591 C-27.82442025 946.17284024 -0.44776477 946.59209289 27.55185878 946.53934503 C32.96514589 946.53247097 38.37840562 946.5430767 43.79168701 946.55128479 C54.36060218 946.56453778 64.92945299 946.56178193 75.49837055 946.55304687 C84.10062202 946.54623543 92.70285562 946.54536845 101.30510902 946.54861832 C102.5355735 946.54907802 103.76603797 946.54953771 105.03378925 946.55001134 C107.53454043 946.55097065 110.03529161 946.5519433 112.53604279 946.55292912 C135.91920944 946.56145878 159.30234066 946.55168801 182.68550149 946.53552802 C202.68194224 946.52213546 222.67831765 946.52444892 242.67475891 946.5382843 C265.97398814 946.55439764 289.27318639 946.56062627 312.57242042 946.55144751 C315.06482907 946.55049201 317.55723772 946.5495489 320.04964638 946.54861832 C321.27550032 946.54815549 322.50135427 946.54769266 323.7643553 946.54721581 C332.33825917 946.54464249 340.91214314 946.54896099 349.48604393 946.55605698 C359.96098618 946.56453682 370.43586113 946.56205773 380.91079583 946.54621474 C386.23941152 946.53841689 391.56791569 946.53509213 396.89653015 946.5451622 C427.09927533 946.5974423 457.08202765 946.08912243 486.69941711 939.45967102 C487.48702423 939.28964569 488.27463135 939.11962036 489.08610535 938.94444275 C503.67030303 935.78626918 518.17751794 931.9980003 531.01191711 924.14717102 C532.22879211 923.73467102 533.44566711 923.32217102 534.69941711 922.89717102 C540.11847805 920.93212836 544.41864308 917.56046029 549.01191711 914.14717102 C549.95164368 913.48717102 550.89137024 912.82717102 551.85957336 912.14717102 C565.79393388 902.15996137 575.70704128 890.59904547 584.77534485 876.09980774 C585.88048148 874.35471736 587.04045133 872.64463261 588.20722961 870.94013977 C591.19946778 866.30929499 592.98305524 861.2556552 595.01191711 856.14717102 C595.57669387 854.81054383 596.1431815 853.4746386 596.71113586 852.13935852 C603.18353495 836.63175897 606.34461713 820.58952973 609.19941711 804.08467102 C609.35434631 803.20150208 609.50927551 802.31833313 609.66889954 801.40840149 C612.73345908 782.72743374 613.35498087 764.04880074 613.39277649 745.15571594 C613.48114447 718.69171462 617.26432832 698.680294 636.09394836 678.96748352 C649.88114441 665.81976781 666.76663246 659.97994928 685.44941711 659.83467102 C686.65791321 659.80566711 687.8664093 659.77666321 689.11152649 659.7467804 C701.57921751 659.65996734 712.21975811 663.03904923 723.01191711 669.14717102 C723.89492493 669.62670227 724.77793274 670.10623352 725.68769836 670.60029602 C739.52875202 678.66608684 748.44787147 691.18638197 754.26191711 705.89717102 C754.63183777 706.80741028 754.63183777 706.80741028 755.00923157 707.73603821 C759.37780849 719.46818323 759.35340813 732.16658429 759.26191711 744.52217102 C759.2572644 745.65134445 759.2572644 745.65134445 759.2525177 746.80332947 C759.03795985 791.79622945 755.31292405 839.60485714 740.32051086 882.29951477 C739.18116915 885.54552964 738.21917991 888.83211056 737.24629211 892.13154602 C734.90589136 899.77598044 731.93471552 907.10625848 728.82441711 914.45967102 C728.53812439 915.14037659 728.25183167 915.82108215 727.9568634 916.52241516 C723.89689091 926.14458949 719.60784341 935.48584322 714.10322571 944.37910461 C712.88874233 946.3467307 711.70872215 948.33285327 710.53144836 950.32295227 C704.92186777 959.78224503 704.92186777 959.78224503 702.01191711 964.14717102 C701.35191711 964.14717102 700.69191711 964.14717102 700.01191711 964.14717102 C699.80308899 964.99279602 699.59426086 965.83842102 699.37910461 966.70967102 C697.67148455 971.00311575 695.21751427 973.76368542 692.13691711 977.14717102 C689.19427327 980.42632158 686.38103857 983.59175097 683.93769836 987.26826477 C681.90588971 990.30567447 679.69127481 992.66539182 677.07441711 995.20967102 C676.24039368 996.02564758 675.40637024 996.84162415 674.54707336 997.68232727 C673.29217102 998.90242493 673.29217102 998.90242493 672.01191711 1000.14717102 C669.38063036 1002.76169799 666.76879759 1005.39315381 664.17988586 1008.04951477 C652.59829726 1019.88128724 652.59829726 1019.88128724 647.01191711 1023.14717102 C646.35191711 1023.14717102 645.69191711 1023.14717102 645.01191711 1023.14717102 C644.68191711 1024.13717102 644.35191711 1025.12717102 644.01191711 1026.14717102 C641.78926086 1027.76045227 641.78926086 1027.76045227 638.94941711 1029.45967102 C635.59532381 1031.5141604 632.38771162 1033.55642499 629.32441711 1036.02217102 C624.2895438 1039.89356645 618.69336738 1042.80777844 613.14082336 1045.85810852 C609.48169728 1047.86872867 605.90731304 1050.00341207 602.32441711 1052.14717102 C593.2752416 1057.33439863 583.65611561 1061.21379646 574.01191711 1065.14717102 C572.81179993 1065.64346008 571.61168274 1066.13974915 570.37519836 1066.65107727 C562.58954463 1069.7672925 554.63525027 1072.17875086 546.56611633 1074.42744446 C543.78264995 1075.21177431 541.00931563 1076.02785523 538.23457336 1076.84248352 C521.34661569 1081.70013731 504.38349407 1084.69661308 487.01191711 1087.14717102 C485.95263 1087.30169739 484.8933429 1087.45622375 483.80195618 1087.61543274 C453.4937832 1091.99941676 423.17423115 1092.44893987 392.61744106 1092.40862036 C387.43997318 1092.40402067 382.26251774 1092.41111629 377.08505249 1092.4165802 C366.98525769 1092.42539844 356.88549288 1092.42358596 346.78569698 1092.41775492 C338.56117001 1092.41320652 330.33665135 1092.41263913 322.11212349 1092.41480255 C320.93388981 1092.41510902 319.75565614 1092.41541548 318.54171841 1092.41573124 C316.14679376 1092.4163708 313.7518691 1092.41701923 311.35694445 1092.41767642 C288.98173749 1092.42335801 266.606547 1092.41685701 244.23134274 1092.40607569 C225.11807217 1092.39715036 206.00482592 1092.39868807 186.89155579 1092.40791321 C164.59792322 1092.41866862 142.30430505 1092.42280035 120.01067024 1092.41668868 C117.62325386 1092.41605171 115.23583748 1092.41542297 112.8484211 1092.41480255 C111.67434536 1092.414494 110.50026963 1092.41418545 109.29061584 1092.41386755 C101.09920131 1092.41215572 92.90779607 1092.41502283 84.71638298 1092.41976166 C74.69992712 1092.42542985 64.6835025 1092.42373188 54.66705012 1092.41320017 C49.57666481 1092.40802069 44.48633117 1092.40575058 39.3959465 1092.41249847 C20.01635766 1092.43594784 0.68599297 1092.26197651 -18.67056274 1091.2481842 C-19.43763184 1091.20881226 -20.20470094 1091.16944032 -20.99501456 1091.12887529 C-36.44470677 1090.31372687 -51.69129196 1088.44677345 -66.98808289 1086.14717102 C-68.05655457 1085.99522278 -69.12502625 1085.84327454 -70.22587585 1085.6867218 C-88.96076765 1083.01789179 -107.41699826 1078.81592026 -125.1582489 1072.15718079 C-128.18122122 1071.07823708 -131.22797682 1070.16936809 -134.30839539 1069.26826477 C-141.4114585 1067.11261401 -148.10630972 1064.2672592 -154.86308289 1061.20967102 C-155.4828299 1060.93115295 -156.1025769 1060.65263489 -156.74110413 1060.36567688 C-169.25839286 1054.721986 -181.22317936 1048.22910006 -192.98808289 1041.14717102 C-193.78262878 1040.6805304 -194.57717468 1040.21388977 -195.39579773 1039.73310852 C-196.13136902 1039.29224915 -196.86694031 1038.85138977 -197.62480164 1038.39717102 C-198.27537537 1038.01045227 -198.9259491 1037.62373352 -199.59623718 1037.22529602 C-200.05554626 1036.86951477 -200.51485535 1036.51373352 -200.98808289 1036.14717102 C-200.98808289 1035.48717102 -200.98808289 1034.82717102 -200.98808289 1034.14717102 C-201.57065857 1033.863255 -202.15323425 1033.57933899 -202.75346375 1033.28681946 C-209.36829153 1029.91327897 -215.2044225 1025.59861501 -220.92558289 1020.89717102 C-221.62143494 1020.32869446 -222.31728699 1019.7602179 -223.03422546 1019.17451477 C-228.34045585 1014.79048855 -233.25418194 1010.14460872 -237.98808289 1005.14717102 C-240.50470371 1002.61012308 -243.04027671 1000.09638152 -245.60136414 997.60420227 C-250.87782982 992.43464038 -255.75017518 987.21545365 -260.27714539 981.35810852 C-261.7135704 979.50190634 -263.19542538 977.72671507 -264.73808289 975.95967102 C-266.76822714 973.4219907 -268.29198225 970.88494806 -269.83988953 968.0382843 C-271.14459157 965.88939593 -272.64446606 964.02411334 -274.23417664 962.07685852 C-278.08031979 957.18235694 -281.15186631 952.01477843 -284.17558289 946.58467102 C-284.68282898 945.69070618 -285.19007507 944.79674133 -285.71269226 943.87568665 C-295.61015015 926.32727558 -304.34278098 907.88927087 -310.2195282 888.60127258 C-311.08507542 885.83746043 -312.01386757 883.09913538 -312.94902039 880.35810852 C-317.50432457 866.86568067 -320.92071739 853.47213477 -323.40263367 839.45283508 C-324.0158029 835.99065353 -324.65581746 832.5340136 -325.29667664 829.07685852 C-330.26039479 801.81940437 -333.14468277 774.6026771 -333.12852478 746.90600586 C-333.13111475 745.10650358 -333.13412965 743.30700188 -333.13752818 741.50750095 C-333.14552783 736.60173826 -333.14738379 731.69599025 -333.14812565 726.79022181 C-333.14998868 721.48303316 -333.15754236 716.17585191 -333.16426086 710.8686676 C-333.17779651 699.27880065 -333.18386199 687.68893718 -333.18827152 676.09906363 C-333.19104311 668.84604873 -333.19528219 661.59303514 -333.1997757 654.34002113 C-333.21196416 634.21379397 -333.22226299 614.08756786 -333.22565079 593.96133709 C-333.22598014 592.03203497 -333.22598014 592.03203497 -333.22631614 590.06375705 C-333.22653442 588.774662 -333.22675269 587.48556695 -333.22697759 586.15740842 C-333.22742104 583.54567889 -333.2278676 580.93394937 -333.22831726 578.32221985 C-333.22853869 577.02674104 -333.22876012 575.73126223 -333.22898826 574.39652649 C-333.2329289 553.44625464 -333.25036238 532.49601772 -333.27367678 511.54575934 C-333.29748255 489.97770223 -333.30985688 468.40966258 -333.31101871 446.84159213 C-333.31193052 434.75588343 -333.31755681 422.67022021 -333.33583832 410.58452415 C-333.35136468 400.28465994 -333.35628702 389.98485526 -333.34810022 379.68498155 C-333.34423697 374.44530588 -333.3449066 369.20574962 -333.35915756 363.96608925 C-333.43697744 333.59698654 -332.55822478 303.48716798 -327.11308289 273.52217102 C-326.84513559 272.00239362 -326.57765092 270.48253459 -326.31059265 268.96260071 C-325.78697308 266.00421799 -325.25259575 263.04810518 -324.70829773 260.09346008 C-324.08727333 256.71820004 -323.51225128 253.33662329 -322.94511414 249.95185852 C-318.38034719 224.22763423 -309.64555305 197.45001032 -297.93681335 174.09248352 C-296.89163316 171.9494069 -295.94048295 169.7760613 -294.99198914 167.58857727 C-293.22019831 163.56523456 -291.20295147 159.82032458 -288.98808289 156.02217102 C-288.32808289 154.8852179 -287.66808289 153.74826477 -286.98808289 152.57685852 C-286.32808289 151.44506165 -285.66808289 150.31326477 -284.98808289 149.14717102 C-284.30806491 147.94032593 -283.62837609 146.7332953 -282.94902039 145.52607727 C-281.27686183 142.64476821 -279.53774152 139.92497581 -277.61308289 137.20967102 C-277.01237976 136.3614679 -276.41167664 135.51326477 -275.79277039 134.63935852 C-273.68975174 131.73518992 -271.53897668 128.87178349 -269.34745789 126.03388977 C-267.92147908 124.12531496 -267.92147908 124.12531496 -266.67558289 121.84248352 C-264.5053244 118.37609843 -261.92534227 115.40822394 -259.23808289 112.33467102 C-258.73792664 111.75652649 -258.23777039 111.17838196 -257.72245789 110.5827179 C-256.68762286 109.38816981 -255.65002995 108.19600614 -254.60990906 107.00605774 C-253.51108024 105.74661433 -252.41764047 104.48245239 -251.32914734 103.21406555 C-246.96931961 98.15982351 -242.39750053 93.36375196 -237.67558289 88.64717102 C-236.92792664 87.90032043 -236.18027039 87.15346985 -235.40995789 86.38398743 C-230.18977385 81.22147873 -224.89146225 76.51965627 -218.98808289 72.14717102 C-217.42387004 70.92018483 -215.86135356 69.69103281 -214.30058289 68.45967102 C-203.54771591 60.14717102 -203.54771591 60.14717102 -200.98808289 60.14717102 C-200.98808289 59.48717102 -200.98808289 58.82717102 -200.98808289 58.14717102 C-198.804245 56.60664368 -198.804245 56.60664368 -195.76542664 54.81123352 C-194.12090515 53.83283508 -194.12090515 53.83283508 -192.44316101 52.83467102 C-191.27070655 52.14704895 -190.09817993 51.45954991 -188.92558289 50.77217102 C-187.79185242 50.0992804 -186.65812195 49.42638977 -185.49003601 48.73310852 C-183.28951246 47.42947474 -181.0856603 46.13144024 -178.8782196 44.83955383 C-177.21265867 43.86424817 -175.55060457 42.88278239 -173.89872742 41.88447571 C-170.36415594 39.77437368 -166.84867208 38.28982537 -162.99247742 36.91572571 C-159.03075529 35.39666344 -155.32827882 33.30407257 -151.60331726 31.28388977 C-145.32760613 28.02229673 -138.67708295 25.9550663 -131.96559143 23.79273987 C-128.80434148 22.76073194 -125.66511879 21.66617596 -122.52323914 20.57685852 C-98.55517386 12.34701237 -98.55517386 12.34701237 -86.08427429 10.49971008 C-82.63363969 9.91937974 -79.23052083 9.12760814 -75.81474304 8.37202454 C-50.7478927 2.86365219 -25.63320144 -0.00402371 0 0 Z " fill="#282C31" transform="translate(332.9880828857422,-0.1471710205078125)"/>
<path d="M0 0 C3.47762697 0.01610088 6.95498859 0.0058737 10.43262386 -0.00373268 C37.5091199 -0.0632931 64.08168975 1.48124903 90.8001709 6.23077393 C91.87589355 6.42155518 92.95161621 6.61233643 94.05993652 6.80889893 C95.24780762 7.02030518 96.43567871 7.23171143 97.6595459 7.44952393 C99.07027248 7.69478028 100.48108438 7.93954627 101.89196777 8.18389893 C121.44738078 11.58543936 140.50226102 15.59510942 159.48864746 21.47198486 C162.62977676 22.44034656 165.7790937 23.37521928 168.9329834 24.30108643 C182.32467011 28.25625034 195.52045051 32.52514263 208.21032715 38.39874268 C210.86256049 39.53662269 213.55722072 40.52496695 216.26989746 41.50836182 C223.59585529 44.16647557 230.43556788 47.21215749 237.3626709 50.80108643 C240.42087013 52.33018604 243.48045771 53.63389128 246.6595459 54.88702393 C251.80083827 56.96672442 256.53053654 59.55474254 261.29699707 62.362854 C265.43975276 64.79282184 269.65137936 66.97937187 273.9720459 69.07452393 C278.63726127 71.37092706 282.93095706 73.81028612 287.18688965 76.78546143 C290.43549037 78.97172352 293.79188896 80.95330912 297.1595459 82.94952393 C306.42083009 88.46652205 315.217408 94.50933501 323.96813965 100.80108643 C326.41081353 102.55722336 328.86114406 104.30163492 331.31970215 106.03546143 C337.4732097 110.38219796 343.50117821 114.80657993 349.34313965 119.57061768 C352.39717006 122.0478329 355.52131417 124.42931826 358.6517334 126.80889893 C360.6595459 128.44952393 360.6595459 128.44952393 362.64001465 130.44171143 C364.67630986 132.46619061 366.78909037 134.12055676 369.0970459 135.82452393 C372.86338211 138.70141592 375.63001569 141.79855163 378.6595459 145.44952393 C379.94920337 146.45858647 381.26387352 147.43619533 382.5970459 148.38702393 C385.99719636 150.82750575 388.47637931 153.42414132 391.0970459 156.66436768 C392.81739229 158.62986342 394.66670481 160.26240278 396.6595459 161.94952393 C399.8263752 164.63982082 402.53183236 167.44540746 405.14001465 170.67608643 C407.18649225 173.06452044 409.4324215 175.22891159 411.6595459 177.44952393 C413.53592772 179.42934946 415.38073299 181.43710427 417.2220459 183.44952393 C417.69062012 183.95741455 418.15919434 184.46530518 418.64196777 184.98858643 C420.73774039 187.27488382 422.76215962 189.5792245 424.68688965 192.01202393 C426.62682479 194.50529343 426.62682479 194.50529343 428.98376465 196.72296143 C432.46928974 200.27463517 435.44280319 204.13256686 438.4720459 208.07452393 C439.09224609 208.8770459 439.71244629 209.67956787 440.35144043 210.50640869 C444.89922505 216.41091535 449.32581422 222.38605986 453.6595459 228.44952393 C455.05398522 230.36720502 456.44983206 232.28386339 457.8470459 234.19952393 C459.1182289 235.94926994 460.38909509 237.6992462 461.6595459 239.44952393 C462.15712402 240.13272705 462.65470215 240.81593018 463.1673584 241.51983643 C464.86474707 243.86772136 466.51575082 246.20734275 467.9954834 248.69952393 C469.64072395 251.41841911 471.3877452 254.03621007 473.1739502 256.66314697 C477.18048944 262.56256314 480.92306442 268.4722973 484.24157715 274.79327393 C485.75581347 277.62985987 487.38411054 280.37764435 489.0345459 283.13702393 C492.87121417 289.6669825 496.2218145 296.40560354 499.55090332 303.20294189 C500.86108547 305.85792893 502.19505472 308.50056813 503.5267334 311.14483643 C517.61487343 339.3078529 517.61487343 339.3078529 522.3861084 353.71124268 C523.81911763 357.91795995 525.40734547 362.05134723 527.00109863 366.19927979 C530.33514034 374.90405534 533.43258993 383.46221382 535.64001465 392.52374268 C536.63879008 396.5431019 537.911814 400.46353464 539.17126465 404.40753174 C543.02939821 416.56390827 545.7541272 428.73200979 548.06237793 441.26690674 C548.65703652 444.43615016 549.29068683 447.59510637 549.93688965 450.75421143 C553.27473523 467.22234813 555.73279188 483.76036504 557.6595459 500.44952393 C557.74690002 501.15790405 557.83425415 501.86628418 557.92425537 502.59613037 C558.75180957 509.87037444 558.83782401 517.1024539 558.8626709 524.41827393 C558.86837097 525.73436646 558.87407104 527.05045898 558.87994385 528.40643311 C558.89037207 531.17649718 558.89626909 533.94653291 558.89978027 536.71661377 C558.90527355 540.23994252 558.92935379 543.7628866 558.95775223 547.28609467 C558.98100168 550.6843126 558.98283417 554.08248072 558.9876709 557.48077393 C559.0061911 559.35774963 559.0061911 559.35774963 559.02508545 561.27264404 C558.99227174 574.26466934 555.13773134 583.31997323 548.6595459 594.44952393 C548.21997559 595.24358643 547.78040527 596.03764893 547.32751465 596.85577393 C538.33960013 611.84468273 523.04073516 620.95183299 506.63220215 625.72296143 C493.20256794 629.00536874 477.75501605 628.97731688 464.6595459 624.44952393 C463.74302246 624.17108643 462.82649902 623.89264893 461.88220215 623.60577393 C445.80484181 618.37443087 432.72612371 607.2059319 424.6595459 592.44952393 C424.0407959 591.35510986 423.4220459 590.2606958 422.7845459 589.13311768 C414.95162966 574.5279926 414.12305685 559.95750144 413.5345459 543.69952393 C413.46145981 541.8921861 413.38724588 540.08489352 413.31188965 538.27764893 C413.20070418 535.59616875 413.08972363 532.91468462 412.98049927 530.23312378 C412.87479661 527.63853579 412.76747087 525.04402035 412.6595459 522.44952393 C412.6098465 521.232659 412.6098465 521.232659 412.55914307 519.99121094 C412.1383865 510.05258065 411.30669587 500.38187494 409.5345459 490.57452393 C409.21284424 488.74836548 409.21284424 488.74836548 408.88464355 486.88531494 C406.64665819 474.63151822 403.65614641 462.58470196 400.4654541 450.54864502 C399.676648 447.51529008 398.95059361 444.47139191 398.22595215 441.42218018 C396.65238103 435.09935135 394.49218332 429.05122885 392.2220459 422.94952393 C391.45106598 420.85630694 390.68153001 418.76255753 389.91345215 416.66827393 C389.53599854 415.64218018 389.15854492 414.61608643 388.76965332 413.55889893 C387.65831456 410.44607499 386.63350611 407.31430106 385.6204834 404.16827393 C384.02924128 399.34446388 382.10966544 394.92396976 379.7220459 390.44952393 C377.31510114 385.80487272 375.07692298 381.19921142 373.1595459 376.32452393 C370.81924022 370.50538547 367.75646989 365.19717721 364.5970459 359.80108643 C357.6595459 347.80033038 357.6595459 347.80033038 357.6595459 344.44952393 C356.9995459 344.44952393 356.3395459 344.44952393 355.6595459 344.44952393 C354.45788574 342.77227783 354.45788574 342.77227783 353.1204834 340.42608643 C352.62628906 339.57441895 352.13209473 338.72275146 351.6229248 337.84527588 C351.09875977 336.93092773 350.57459473 336.01657959 350.0345459 335.07452393 C346.17952509 328.48544991 342.34248755 322.34849871 337.3861084 316.53546143 C335.6238317 314.40637601 334.14564146 312.21550521 332.6595459 309.88702393 C329.95723317 305.69992398 326.80253957 302.1191044 323.3939209 298.49249268 C321.6595459 296.44952393 321.6595459 296.44952393 320.7376709 294.50030518 C319.20986363 291.59415005 317.02020396 289.72787173 314.6595459 287.44952393 C312.36547026 285.05460205 310.10756336 282.62610271 307.8470459 280.19952393 C307.2268457 279.53565674 306.60664551 278.87178955 305.96765137 278.18780518 C302.67936277 274.6578192 299.4456782 271.09456714 296.2845459 267.44952393 C293.41411517 264.19315293 290.39154585 261.34525443 287.07751465 258.54718018 C283.11348746 255.10827452 279.31400244 251.49041245 275.49499512 247.89190674 C274.91378906 247.3476001 274.33258301 246.80329346 273.73376465 246.24249268 C273.21386963 245.75289062 272.69397461 245.26328857 272.1583252 244.7588501 C270.482972 243.23816105 270.482972 243.23816105 267.6595459 241.44952393 C267.6595459 240.78952393 267.6595459 240.12952393 267.6595459 239.44952393 C266.93122559 239.20718018 266.20290527 238.96483643 265.45251465 238.71514893 C262.30392473 237.28837531 260.44490995 235.60290255 257.9720459 233.19952393 C253.92532647 229.44057121 249.91913168 226.66327145 245.1282959 223.95733643 C242.58864803 222.40622238 240.43008654 220.68265249 238.1595459 218.76202393 C228.90543773 211.12628125 218.07365802 205.34555609 207.6595459 199.44952393 C206.95386475 199.0452417 206.24818359 198.64095947 205.52111816 198.22442627 C175.93498147 181.35072066 143.3990516 166.74677044 110.09313965 159.02520752 C107.38694157 158.38503747 104.69608231 157.69467998 102.0032959 157.00030518 C95.58106146 155.36339711 89.13227011 153.87280595 82.6595459 152.44952393 C81.59059082 152.21169189 80.52163574 151.97385986 79.42028809 151.7288208 C32.79697868 141.72716674 -21.65427713 141.56612283 -68.3404541 151.44952393 C-69.28179199 151.63917725 -70.22312988 151.82883057 -71.19299316 152.02423096 C-77.93727985 153.38328974 -84.6402186 154.88942842 -91.3404541 156.44952393 C-92.30805664 156.66834229 -93.27565918 156.88716064 -94.27258301 157.11260986 C-109.16075809 160.49416669 -123.35687884 165.02365627 -137.63000488 170.43145752 C-139.92997502 171.2953447 -142.23586334 172.1281428 -144.55529785 172.93780518 C-161.28866175 178.89017701 -177.89482917 186.36398924 -193.11779785 195.53546143 C-195.85590822 197.16173304 -198.61499834 198.67545452 -201.42248535 200.17608643 C-207.82831367 203.65321062 -213.95837154 207.51433946 -220.0904541 211.44952393 C-221.17455566 212.13530518 -222.25865723 212.82108643 -223.37561035 213.52764893 C-229.08260903 217.17901316 -234.30723605 220.91762241 -239.3404541 225.44952393 C-244.68497224 229.44952393 -244.68497224 229.44952393 -247.3404541 229.44952393 C-247.3404541 230.10952393 -247.3404541 230.76952393 -247.3404541 231.44952393 C-249.41048287 233.19016125 -251.49248407 234.82791758 -253.6529541 236.44952393 C-259.23308723 240.72842834 -264.49999493 245.16742373 -269.6451416 249.96514893 C-271.75712823 251.91184965 -273.89508378 253.79515324 -276.07092285 255.66827393 C-280.8318373 259.82093627 -285.31405055 264.23159158 -289.7779541 268.69952393 C-290.61616699 269.53781738 -291.45437988 270.37611084 -292.31799316 271.23980713 C-298.07465816 277.04981617 -303.31413044 282.99815465 -308.3404541 289.44952393 C-309.55942645 290.85426867 -310.78817684 292.25060634 -312.0279541 293.63702393 C-314.95538541 296.92527816 -317.5502184 300.37850319 -320.07873535 303.98077393 C-320.49510254 304.46546143 -320.91146973 304.95014893 -321.3404541 305.44952393 C-322.0004541 305.44952393 -322.6604541 305.44952393 -323.3404541 305.44952393 C-323.7117041 306.22296143 -323.7117041 306.22296143 -324.0904541 307.01202393 C-326.52661256 311.76253291 -328.9635048 316.06666383 -332.3404541 320.19952393 C-343.50873029 334.32060661 -351.99082812 350.57043938 -360.3404541 366.44952393 C-360.67883301 367.09163818 -361.01721191 367.73375244 -361.36584473 368.39532471 C-363.44531068 372.37190694 -365.41826177 376.395207 -367.3404541 380.44952393 C-367.77277344 381.36056885 -368.20509277 382.27161377 -368.6505127 383.21026611 C-370.14132459 386.36840044 -371.61806166 389.53276308 -373.0904541 392.69952393 C-373.56297607 393.70612061 -374.03549805 394.71271729 -374.52233887 395.74981689 C-376.98047967 401.08993103 -379.0155839 406.3194585 -380.60217285 411.97784424 C-381.37510729 414.56553877 -382.29951713 417.04509639 -383.2857666 419.55889893 C-390.62296718 438.39633454 -395.16699765 457.71125608 -399.3404541 477.44952393 C-399.48416443 478.12090393 -399.62787476 478.79228394 -399.77593994 479.48400879 C-406.86717238 512.7662165 -407.07296624 547.01120948 -405.49621582 580.87579346 C-405.36348234 583.9211739 -405.27474903 586.96059811 -405.21936035 590.00811768 C-404.67981201 613.53619518 -399.15512672 636.63971235 -393.14660645 659.28399658 C-392.32703061 662.50223411 -391.61035699 665.73230454 -390.9029541 668.97686768 C-389.41661245 675.50178014 -387.29960504 681.68489149 -384.9654541 687.94952393 C-384.56189697 689.04756348 -384.15833984 690.14560303 -383.74255371 691.2769165 C-382.95485743 693.41476775 -382.1636208 695.55131899 -381.36828613 697.68634033 C-380.56473789 699.84656813 -379.77590189 702.01226991 -378.99279785 704.17999268 C-372.31546349 722.29734791 -363.96016729 740.7978467 -353.6998291 757.16827393 C-352.3404541 759.44952393 -352.3404541 759.44952393 -350.9967041 762.21514893 C-348.94439085 766.2229682 -346.55439316 769.93507915 -344.0904541 773.69952393 C-343.35520508 774.82886353 -343.35520508 774.82886353 -342.60510254 775.98101807 C-339.46762325 780.78070042 -336.27077856 785.52979152 -332.9420166 790.19952393 C-331.83771849 791.7509281 -330.75008788 793.31428571 -329.6763916 794.88702393 C-325.84720855 800.48217724 -321.73210806 805.72723418 -317.3560791 810.90655518 C-315.3404541 813.44952393 -315.3404541 813.44952393 -313.8873291 815.96124268 C-312.03589905 818.93942688 -309.86721375 821.01049899 -307.3404541 823.44952393 C-304.65183433 826.24127477 -301.99775363 829.06548172 -299.3404541 831.88702393 C-298.64178223 832.62501221 -297.94311035 833.36300049 -297.2232666 834.12335205 C-294.25529928 837.27331737 -291.31958165 840.41570231 -288.5826416 843.76983643 C-286.65063581 846.07881896 -284.77058277 847.96927166 -282.4654541 849.88702393 C-279.85996943 852.10435445 -277.40086637 854.36056466 -275.0279541 856.82452393 C-271.22762103 860.70384776 -267.03223515 864.04771002 -262.7935791 867.43389893 C-260.84236133 869.03712882 -259.11266904 870.66301693 -257.3404541 872.44952393 C-250.59456597 878.12563502 -243.50216979 883.31648923 -236.3404541 888.44952393 C-235.25789038 889.2404623 -234.17587835 890.03215623 -233.09436035 890.82452393 C-222.00083567 898.91020188 -210.51621724 906.39323756 -198.37561035 912.82061768 C-195.92472617 914.13595706 -193.50363888 915.48415585 -191.08654785 916.85968018 C-183.68658002 921.05989411 -176.41664845 925.07057627 -168.4732666 928.16827393 C-163.74032577 930.1039405 -159.15674879 932.34911944 -154.56481934 934.59649658 C-150.41773558 936.59219724 -146.28810195 938.21330485 -141.90563965 939.61407471 C-138.86744461 940.60357727 -135.86427428 941.6769655 -132.8560791 942.75421143 C-119.51899783 947.49300095 -106.30944378 951.90983992 -92.43029785 954.79718018 C-89.45192005 955.42599066 -86.48215918 956.08832845 -83.51261902 956.75746155 C-66.40759459 960.59504719 -49.71438665 963.47648648 -32.15344238 964.29302979 C-29.32014688 964.45065367 -26.50875248 964.70613575 -23.6842041 964.97686768 C-15.8681252 965.64642026 -8.05373088 965.64801516 -0.2154541 965.63702393 C0.58379486 965.63641968 1.38304382 965.63581543 2.20651245 965.63519287 C52.80840521 965.53255338 101.33301115 957.25452883 148.73718262 939.17559814 C150.48845468 938.51414487 152.24746691 937.87327721 154.00720215 937.23468018 C160.90329557 934.69671271 167.42176975 931.69843296 173.92907715 928.30352783 C177.11171499 926.6559584 180.23291453 925.20045249 183.61657715 924.01202393 C188.09052451 922.39333662 191.99078858 920.05513263 196.0345459 917.57452393 C200.57006376 914.84264387 205.05495694 912.15194159 209.8470459 909.88702393 C219.79521567 905.0728504 228.89884648 898.43529186 237.77770996 891.89996338 C241.58612972 889.11904019 245.5201038 886.69636184 249.6595459 884.44952393 C250.27289795 884.11509277 250.88625 883.78066162 251.51818848 883.43609619 C269.08625302 874.00410772 287.50023418 869.82069004 307.2845459 875.07452393 C319.79684987 879.31014836 331.4761479 885.66340719 340.7845459 895.07452393 C341.39419189 895.68989014 342.00383789 896.30525635 342.63195801 896.93927002 C347.464734 901.96535705 350.89821683 907.0218148 353.6595459 913.44952393 C354.11716309 914.44983643 354.57478027 915.45014893 355.04626465 916.48077393 C362.40912237 933.18960864 363.69681724 953.06804734 357.3861084 970.39483643 C350.86547198 986.38166493 340.51761917 1000.75033211 325.0970459 1009.07843018 C322.39830447 1010.59647223 320.00946075 1012.33965488 317.5345459 1014.19952393 C312.2501529 1018.12312902 306.74944393 1021.6013788 301.14147949 1025.03643799 C297.85755491 1027.0517025 294.74250094 1029.13566428 291.6595459 1031.44952393 C290.05064551 1032.37395991 288.42380973 1033.26756636 286.7845459 1034.13702393 C282.6126862 1036.37625046 278.50110521 1038.69190888 274.4095459 1041.07452393 C259.88798748 1049.43804947 245.01474143 1057.19322532 229.54675293 1063.6506958 C227.58241077 1064.48217414 225.63390159 1065.34390498 223.68688965 1066.21514893 C215.16527951 1070.02494379 206.56711413 1073.46934809 197.79724121 1076.66387939 C195.53455255 1077.49546141 193.28038571 1078.34767792 191.0267334 1079.20343018 C181.48315685 1082.80971368 171.92310301 1086.02397362 162.09606934 1088.76202393 C159.36354813 1089.53304394 156.64081404 1090.33458517 153.9173584 1091.13702393 C140.3345164 1095.09743129 126.74931435 1098.27714079 112.83972168 1100.85235596 C109.64781274 1101.45172716 106.46438372 1102.08565317 103.28063965 1102.72686768 C71.78402102 1108.97868038 41.07160915 1111.1202081 9.0279541 1110.9710083 C4.08483546 1110.94820456 -0.85742194 1110.96179277 -5.80051136 1110.9847784 C-42.42881502 1111.12896285 -77.39871187 1107.13797477 -113.1998291 1099.11358643 C-116.71173945 1098.37101832 -120.23811564 1097.79427411 -123.7779541 1097.19952393 C-132.56960256 1095.643662 -140.98216795 1092.94129893 -149.48498535 1090.26202393 C-153.1739055 1089.10290884 -156.86682495 1088.01131594 -160.60217285 1087.01202393 C-172.68083893 1083.77724212 -184.09777228 1079.52609667 -195.65686035 1074.76202393 C-199.97293999 1072.98510501 -204.29208519 1071.37352363 -208.7154541 1069.88702393 C-217.57844683 1066.80235489 -225.93117852 1062.5844123 -234.3404541 1058.44952393 C-235.01302246 1058.12081299 -235.68559082 1057.79210205 -236.37854004 1057.45343018 C-241.05560945 1055.1635902 -245.70308191 1052.8186056 -250.3404541 1050.44952393 C-251.26003906 1049.98078857 -252.17962402 1049.51205322 -253.1270752 1049.02911377 C-256.18112286 1047.46811199 -259.230147 1045.89767173 -262.2779541 1044.32452393 C-263.23733887 1043.83363281 -264.19672363 1043.3427417 -265.18518066 1042.8369751 C-270.47820141 1040.08874667 -275.46725774 1037.13357395 -280.3861084 1033.76202393 C-282.76566198 1032.16396271 -285.22904807 1030.82027679 -287.7779541 1029.51202393 C-292.39750348 1027.04783533 -296.59940313 1024.25514429 -300.83654785 1021.18780518 C-304.26769231 1018.80580942 -307.86440962 1016.75530275 -311.5045166 1014.71124268 C-312.11037598 1014.29487549 -312.71623535 1013.8785083 -313.3404541 1013.44952393 C-313.3404541 1012.78952393 -313.3404541 1012.12952393 -313.3404541 1011.44952393 C-313.90248535 1011.17753174 -314.4645166 1010.90553955 -315.0435791 1010.62530518 C-325.22566143 1005.41304874 -333.77773436 998.18547376 -342.53430176 990.93096924 C-345.51423694 988.48676179 -348.57065605 986.14528433 -351.64123535 983.81671143 C-353.3404541 982.44952393 -353.3404541 982.44952393 -354.76623535 981.01202393 C-356.78176754 979.0114957 -358.97792754 977.32237902 -361.2154541 975.57452393 C-364.82926623 972.70749668 -368.11911474 969.75563537 -371.3404541 966.44952393 C-372.66790523 965.29688118 -374.00179263 964.15162793 -375.3404541 963.01202393 C-378.73478986 960.07997644 -381.46700054 956.8976682 -384.3404541 953.44952393 C-385.63562588 952.28413972 -386.9496263 951.13947039 -388.2779541 950.01202393 C-391.52259189 947.25438618 -394.21565881 944.34792305 -396.9107666 941.06280518 C-398.48890158 939.19392559 -398.48890158 939.19392559 -401.3404541 937.01202393 C-404.44299851 934.36193391 -406.53537051 931.65689221 -408.89904785 928.36749268 C-410.81635221 925.81628281 -413.05704815 923.67284024 -415.3404541 921.44952393 C-416.67378743 919.78285726 -418.00712077 918.11619059 -419.3404541 916.44952393 C-420.09971191 915.70702393 -420.85896973 914.96452393 -421.64123535 914.19952393 C-424.52069518 911.26589191 -427.02130009 908.19889023 -429.5279541 904.94952393 C-430.0013623 904.34076416 -430.47477051 903.73200439 -430.96252441 903.10479736 C-431.94283681 901.84271853 -432.92151085 900.57936543 -433.89855957 899.3147583 C-435.27177032 897.53837324 -436.65103645 895.76686882 -438.03186035 893.99639893 C-442.99711656 887.61075693 -447.75639821 881.1152805 -452.3404541 874.44952393 C-454.14589991 871.88961947 -455.95319737 869.33104337 -457.7623291 866.77374268 C-458.79896886 865.24700837 -459.79332283 863.69052606 -460.7388916 862.10577393 C-462.37295539 859.39561936 -464.12253873 856.79724327 -465.90588379 854.18438721 C-469.77448956 848.50552781 -473.28794246 842.91820728 -476.21154785 836.68389893 C-477.36358793 834.40373655 -478.68209112 832.4111882 -480.1529541 830.32452393 C-484.2152513 824.4128945 -487.19146309 817.9620045 -490.32141113 811.52716064 C-491.27810178 809.57664857 -492.25467952 807.63817509 -493.24279785 805.70343018 C-501.66175332 789.198729 -509.54910184 772.45536054 -515.71936035 754.97296143 C-517.08508421 751.10410744 -518.57817052 747.29840912 -520.10876465 743.49224854 C-522.9702163 736.35495969 -525.33670528 729.31337647 -527.18811035 721.83624268 C-528.06727284 718.36499546 -529.0896104 714.95199393 -530.14904785 711.53155518 C-535.26246165 695.00126056 -539.23522567 678.47020756 -542.3404541 661.44952393 C-542.46913879 660.74468872 -542.59782349 660.03985352 -542.73040771 659.31365967 C-543.69329854 654.00989172 -544.61785936 648.70007743 -545.5279541 643.38702393 C-545.70913788 642.34821579 -545.70913788 642.34821579 -545.89398193 641.28842163 C-546.80578633 636.02153294 -547.60266957 630.74349052 -548.3404541 625.44952393 C-548.54171402 624.03052292 -548.54171402 624.03052292 -548.74703979 622.58285522 C-551.50055427 602.49297528 -551.84124645 582.57469373 -551.78649902 562.33551025 C-551.77735194 558.8023905 -551.78415903 555.26993452 -551.80700684 551.73687744 C-552.05067287 513.80707951 -548.58660441 476.71510561 -540.01623535 439.69952393 C-539.40405588 436.7554007 -538.92960971 433.82656239 -538.46936035 430.85577393 C-537.41079063 424.41187369 -535.77233871 418.219102 -533.9654541 411.94952393 C-533.67412598 410.91182861 -533.38279785 409.8741333 -533.0826416 408.80499268 C-531.29194814 402.49829597 -529.30853832 396.28044907 -527.20666504 390.07110596 C-526.23162968 387.12016748 -525.42288701 384.14750232 -524.6529541 381.13702393 C-522.00349358 371.69112119 -518.25241383 362.65185774 -514.5892334 353.56182861 C-513.6986352 351.34221066 -512.81840772 349.11841983 -511.94519043 346.89190674 C-508.50984574 338.14733446 -504.77577579 329.57944305 -500.7779541 321.07452393 C-500.48042236 320.4389859 -500.18289063 319.80344788 -499.87634277 319.14865112 C-495.53487711 309.88936173 -491.03784637 300.72180389 -486.3404541 291.63702393 C-485.82539307 290.63687256 -485.31033203 289.63672119 -484.77966309 288.60626221 C-482.02626119 283.35550555 -479.06555974 278.39249227 -475.7154541 273.50201416 C-473.73991262 270.55308354 -472.05379001 267.4960147 -470.3404541 264.38702393 C-467.7520226 259.75434444 -464.99119339 255.45823225 -461.69592285 251.29718018 C-460.23275404 249.30271664 -459.11213927 247.26503547 -457.9654541 245.07452393 C-455.56814327 240.58247548 -452.56793701 236.80234015 -449.30529785 232.90655518 C-447.13306743 230.19018751 -445.25508883 227.35259341 -443.3404541 224.44952393 C-441.81648034 222.31179965 -440.27475387 220.18661894 -438.7154541 218.07452393 C-437.93943848 217.01491455 -437.16342285 215.95530518 -436.3638916 214.86358643 C-435.69615723 214.0669458 -435.02842285 213.27030518 -434.3404541 212.44952393 C-433.6804541 212.44952393 -433.0204541 212.44952393 -432.3404541 212.44952393 C-432.09553223 211.72120361 -431.85061035 210.9928833 -431.5982666 210.24249268 C-430.19571342 207.12812769 -428.56131785 205.23458066 -426.2154541 202.76202393 C-423.24567273 199.56235427 -420.4325508 196.35159779 -417.7779541 192.88702393 C-412.68225015 186.41272271 -406.92904367 180.54850719 -401.2545166 174.58624268 C-397.32348305 170.45233533 -393.51227558 166.22715658 -389.7467041 161.94171143 C-387.12451392 159.22587159 -384.34258594 156.79645738 -381.48596191 154.33233643 C-377.87806794 151.16619188 -374.43601341 147.82699549 -370.9654541 144.51202393 C-365.65311983 139.47152636 -360.31422896 134.62165843 -354.5045166 130.15264893 C-352.3088068 128.42461738 -350.26995209 126.59243219 -348.2154541 124.69952393 C-337.42514806 114.99395765 -325.16895612 106.82381309 -313.3404541 98.44952393 C-312.43178589 97.78182983 -312.43178589 97.78182983 -311.50476074 97.10064697 C-310.89366455 96.65374512 -310.28256836 96.20684326 -309.6529541 95.74639893 C-309.10123535 95.33873291 -308.5495166 94.93106689 -307.9810791 94.51104736 C-305.58932065 92.9635227 -303.07524214 92.18324754 -300.3404541 91.44952393 C-300.3404541 90.78952393 -300.3404541 90.12952393 -300.3404541 89.44952393 C-298.26506025 87.9346379 -296.20483223 86.55474277 -294.0279541 85.19952393 C-293.3885791 84.7954834 -292.7492041 84.39144287 -292.0904541 83.97515869 C-287.52883446 81.12016297 -282.88442146 78.47085676 -278.1295166 75.94952393 C-275.11603964 74.32883043 -272.17018886 72.61241648 -269.2154541 70.88702393 C-253.34502536 61.73816184 -236.99981078 53.43000717 -220.15490723 46.23565674 C-217.65048922 45.15058866 -215.18506403 43.98626351 -212.7154541 42.82452393 C-206.45754188 39.97137246 -200.01317457 37.62871096 -193.55871582 35.26739502 C-191.2632208 34.42104808 -188.97532819 33.55625471 -186.68811035 32.68780518 C-177.12749653 29.07621391 -167.54889441 25.89661611 -157.71203613 23.13262939 C-155.11824695 22.38551985 -152.54038261 21.5943407 -149.96154785 20.79718018 C-135.43623488 16.3503548 -120.82808145 13.02095116 -105.9161377 10.14483643 C-102.53814976 9.487967 -99.16783841 8.80058674 -95.79748535 8.10577393 C-64.00440917 1.69862721 -32.3557581 -0.21271635 0 0 Z " fill="#282C31" transform="translate(1489.3404541015625,936.5504760742188)"/>
<path d="M0 0 C1.39041252 -0.00839905 1.39041252 -0.00839905 2.80891418 -0.01696777 C5.82720143 -0.02888469 8.84499419 -0.02257568 11.86328125 -0.01171875 C12.90532715 -0.00989594 13.94737305 -0.00807312 15.02099609 -0.00619507 C53.90894271 0.10774026 93.20197664 3.80869883 131.3671875 11.40625 C135.2008121 12.16119563 139.04120868 12.69919694 142.9140625 13.21484375 C150.00218191 14.20551268 156.86322251 15.74870131 163.80078125 17.48828125 C165.7070795 17.96002764 167.61337811 18.43177262 169.5196991 18.90342712 C170.81978314 19.22579928 172.11959861 19.54925651 173.41914368 19.87379456 C177.68083477 20.93741722 181.95039634 21.96116174 186.2265625 22.96484375 C202.44103227 26.8175146 218.05529032 31.73017586 233.79199219 37.16503906 C237.09489789 38.27363339 240.41292355 39.29645166 243.75 40.296875 C250.30772417 42.28898807 256.67152385 44.67690322 263.05078125 47.17578125 C264.18483398 47.61704346 265.31888672 48.05830566 266.48730469 48.51293945 C268.72058091 49.38322746 270.95303894 50.25561876 273.18457031 51.13037109 C275.68606773 52.10916465 278.1911056 53.07740555 280.69921875 54.0390625 C288.01881006 56.88557023 294.94835056 60.13849844 301.921875 63.72265625 C304.76031064 65.0992805 307.50042163 66.18433462 310.48828125 67.17578125 C316.94258819 69.39030885 322.76584231 72.68349224 328.74609375 75.92578125 C333.02572459 78.2419499 337.37041319 80.40697605 341.73828125 82.55078125 C346.42765111 84.86049614 350.99652387 87.21934909 355.3046875 90.1953125 C357.56119773 91.52849078 359.93526455 92.48382102 362.34887695 93.49487305 C374.16395888 98.70689837 385.21725605 106.51608243 396.17578125 113.30078125 C396.8709082 113.73084473 397.56603516 114.1609082 398.28222656 114.60400391 C402.29709023 117.09924072 406.25765742 119.65496331 410.17578125 122.30078125 C410.96162598 122.83010254 411.7474707 123.35942383 412.55712891 123.90478516 C415.37081082 125.80278683 418.17980015 127.70759367 420.98828125 129.61328125 C421.93509766 130.25201172 422.88191406 130.89074219 423.85742188 131.54882812 C429.12279742 135.12551475 434.24564924 138.81041974 439.23413086 142.76513672 C441.1084599 144.24753703 443.00847135 145.68709436 444.92578125 147.11328125 C453.64577913 153.64032917 462.23143559 160.2469739 470.50610352 167.33251953 C473.71879401 170.08124669 476.97442962 172.75159601 480.30078125 175.36328125 C484.96121529 179.05215901 489.32885382 183.01730866 493.69921875 187.04296875 C495.61526305 188.78977254 497.5425505 190.47580079 499.55078125 192.11328125 C502.26206855 194.37268733 504.68079797 196.80579797 507.17578125 199.30078125 C508.50204817 200.47547481 509.83594078 201.64159343 511.17578125 202.80078125 C514.31090518 205.52139159 517.27439944 208.32863403 520.17578125 211.30078125 C520.85511719 211.96980469 521.53445313 212.63882813 522.234375 213.328125 C527.78466842 218.80354094 532.94749596 224.49502251 537.98828125 230.4375 C538.88546875 231.48357422 538.88546875 231.48357422 539.80078125 232.55078125 C540.32929687 233.1746875 540.8578125 233.79859375 541.40234375 234.44140625 C543.19714073 236.41251719 543.19714073 236.41251719 545.62890625 238.22265625 C548.27972269 240.38559236 550.19491263 242.61039396 552.30078125 245.30078125 C555.57558377 249.3942844 558.96633338 253.28816331 562.55078125 257.11328125 C568.06086443 263.01714913 573.00645059 269.29533486 577.9296875 275.69042969 C579.71522214 277.99791137 581.53720169 280.27531493 583.36328125 282.55078125 C583.99105469 283.33453125 584.61882813 284.11828125 585.265625 284.92578125 C586.60840354 286.59533003 587.95511418 288.2617202 589.3046875 289.92578125 C590.00464844 290.79203125 590.70460938 291.65828125 591.42578125 292.55078125 C592.0496875 293.3190625 592.67359375 294.08734375 593.31640625 294.87890625 C595.40848935 297.60388843 597.27348849 300.44024401 599.17578125 303.30078125 C600.90099254 305.69421792 602.66529661 308.05822231 604.42578125 310.42578125 C609.21777706 316.92055309 613.78296998 323.52780132 618.17578125 330.30078125 C618.53381836 330.85088867 618.89185547 331.40099609 619.26074219 331.96777344 C626.63275626 343.30392344 633.76725379 354.7733477 640.53125 366.484375 C642.01960829 369.03332114 643.5592159 371.54165687 645.11328125 374.05078125 C648.14646237 379.06282919 650.69699983 384.2825409 653.27392578 389.5378418 C655.31445439 393.67062657 657.44560637 397.63002266 660.0703125 401.4296875 C661.35828278 403.60967959 662.30157478 405.88696857 663.27661133 408.2199707 C665.4819551 413.32345833 667.98993131 418.29752988 670.41601562 423.29882812 C672.90439132 428.47570686 675.16927122 433.68096769 677.26196289 439.02954102 C678.50888297 442.12868543 679.95930456 445.11269909 681.42578125 448.11328125 C685.53309057 456.72599467 688.82395667 465.62386015 692.14648438 474.56152344 C693.17105487 477.28820297 694.22302999 480.00259341 695.28515625 482.71484375 C698.6384242 491.30240478 701.80971939 499.8464998 704.27450562 508.734375 C705.54251845 513.2763274 706.98610642 517.72641415 708.53886414 522.17828369 C712.75354652 534.33495676 716.00952476 546.6571018 719.03833008 559.15576172 C719.85996136 562.53711853 720.70153721 565.91307426 721.54492188 569.2890625 C725.00441511 583.3236598 727.67279086 597.34119411 729.77749634 611.63922119 C730.31234335 615.21336475 730.9125202 618.77334128 731.51953125 622.3359375 C734.00622672 637.3071355 735.93564842 652.26093951 737.42578125 667.36328125 C737.50868408 668.20150421 737.59158691 669.03972717 737.67700195 669.90335083 C738.21174642 675.36627611 738.70797263 680.83173903 739.17578125 686.30078125 C739.28108154 687.50581299 739.38638184 688.71084473 739.49487305 689.95239258 C740.33650363 700.82225263 740.43076921 711.70029528 740.47094727 722.59838867 C740.48251311 724.77683992 740.50303664 726.95526183 740.5324707 729.13354492 C740.69833357 741.47318598 740.81671579 752.67912943 736.17578125 764.30078125 C735.88791748 765.03578857 735.60005371 765.7707959 735.3034668 766.52807617 C731.1356958 776.31113024 725.13739891 785.22378777 717.17578125 792.30078125 C716.18578125 792.63078125 715.19578125 792.96078125 714.17578125 793.30078125 C713.84578125 794.29078125 713.51578125 795.28078125 713.17578125 796.30078125 C706.42264152 801.28524153 699.3004046 805.16573914 691.17578125 807.30078125 C689.97115234 807.69716797 689.97115234 807.69716797 688.7421875 808.1015625 C670.94936255 813.67999647 652.16735128 811.5433919 635.17578125 804.30078125 C617.10839749 794.47964891 604.77682164 779.61530254 598.17578125 760.30078125 C595.64173784 751.43532151 594.70844622 743.0054197 594.5859375 733.8125 C594.52614652 731.23924778 594.46590897 728.6660059 594.40527344 726.09277344 C594.37797816 724.75468744 594.35108586 723.41659317 594.32458496 722.07849121 C594.18426805 715.19160931 593.97884856 708.3065885 593.7578125 701.421875 C593.72541536 700.4127751 593.72541536 700.4127751 593.69236374 699.38328934 C593.1894487 684.14467236 591.76762321 669.33346459 589.17578125 654.30078125 C588.9459154 652.93965149 588.7162688 651.57848468 588.48681641 650.21728516 C587.05950535 641.81663843 585.51308503 633.44244808 583.89746094 625.07617188 C583.23851176 621.62894927 582.61150634 618.17786426 581.99609375 614.72265625 C579.40331183 600.5323552 575.56164602 586.90424689 571.26171875 573.15625 C569.93352606 568.90136061 568.75375887 564.66462862 567.7421875 560.32421875 C566.02270588 553.23371253 563.38924063 546.52278998 560.73828125 539.73828125 C559.77924165 537.25858485 558.8235369 534.77761123 557.8671875 532.296875 C557.40852295 531.11287109 556.9498584 529.92886719 556.47729492 528.70898438 C555.28388778 525.58387396 554.13784853 522.44672389 553.01171875 519.296875 C551.60722931 515.4006072 550.04401238 511.65729211 548.23828125 507.92578125 C546.25180825 503.72609143 544.49566464 499.54704667 542.92578125 495.17578125 C540.16034896 487.80425917 536.4527966 481.0090512 532.73046875 474.08984375 C530.3849455 469.72685472 528.17007078 465.30982218 525.98828125 460.86328125 C523.13674008 455.08467084 520.06117687 449.49540163 516.75390625 443.9609375 C515.35397715 441.60115602 514.03547311 439.21788209 512.73828125 436.80078125 C510.14499368 432.07637618 507.10843702 427.67623059 504.0859375 423.21875 C502.45514343 420.72753698 501.00358743 418.24247412 499.61328125 415.61328125 C497.49673456 411.6713906 494.95793035 408.28199365 492.1171875 404.83203125 C490.43470239 402.63836857 488.90768385 400.42319935 487.38671875 398.1171875 C484.14824391 393.21432124 480.72451547 388.46713361 477.23828125 383.73828125 C476.36526367 382.54041992 476.36526367 382.54041992 475.47460938 381.31835938 C472.06546524 376.68600073 468.51410712 372.28319164 464.65405273 368.01806641 C463.17578125 366.30078125 463.17578125 366.30078125 461.17578125 363.23828125 C459.06286253 360.13493188 456.71454691 357.81056765 454.02734375 355.21484375 C452.08107406 353.20287719 450.42096544 351.09917668 448.73828125 348.86328125 C445.81060764 344.99901406 442.62228952 341.64298292 439.1484375 338.26953125 C437.20421148 336.32915518 435.40344514 334.32079853 433.61328125 332.23828125 C430.30993077 328.40067591 426.78987649 324.84323143 423.17578125 321.30078125 C420.62779975 318.7611675 418.08925359 316.21308954 415.5625 313.65234375 C410.27423737 308.31050972 404.89141356 303.18525587 399.17578125 298.30078125 C397.67300125 296.97058199 396.17309972 295.63712521 394.67578125 294.30078125 C390.52912069 290.61089569 386.37128431 286.93510237 382.17578125 283.30078125 C381.37333984 282.6046875 381.37333984 282.6046875 380.5546875 281.89453125 C378.06781828 279.77584787 375.55352527 277.86268866 372.80078125 276.11328125 C371.93453125 275.51515625 371.06828125 274.91703125 370.17578125 274.30078125 C370.17578125 273.64078125 370.17578125 272.98078125 370.17578125 272.30078125 C369.63824219 272.06488281 369.10070313 271.82898438 368.546875 271.5859375 C365.52288813 269.94690673 362.92348022 267.86781057 360.23828125 265.73828125 C354.295533 261.09936341 348.19188132 256.75692569 341.95605469 252.51757812 C340.01402521 251.19022281 338.08265268 249.84824492 336.15234375 248.50390625 C329.71736656 244.03072015 323.29832565 239.63049874 316.51953125 235.6875 C313.91888266 234.14878292 311.39577748 232.51158698 308.86328125 230.86328125 C303.84849242 227.64957855 298.68252703 224.82780049 293.41796875 222.046875 C290.34812961 220.39360018 287.35595513 218.65158637 284.36328125 216.86328125 C274.19338384 210.88963586 263.58922474 205.80347945 252.75244141 201.16503906 C248.52972433 199.35195262 244.34904318 197.46491621 240.18359375 195.5234375 C239.12978516 195.03335205 238.07597656 194.5432666 236.99023438 194.03833008 C234.9160745 193.07094979 232.84431328 192.09840401 230.77539062 191.11987305 C225.48982478 188.66039692 220.32847419 186.63022532 214.71728516 185.05664062 C209.89768153 183.62325995 205.24074654 181.73100967 200.55078125 179.92578125 C180.79321236 172.44638661 160.51060297 166.95982598 140.17578125 161.30078125 C142.40283931 165.13534325 144.63281022 168.96820365 146.86328125 172.80078125 C147.48912109 173.8784375 148.11496094 174.95609375 148.75976562 176.06640625 C151.78941719 181.26915867 154.85525705 186.43413089 158.07006836 191.52441406 C161.40649802 196.88450729 164.39910736 202.44602712 167.30078125 208.05078125 C167.64753906 208.69015625 167.99429687 209.32953125 168.3515625 209.98828125 C173.01392782 219.06292332 173.52715834 228.69434577 173.42578125 238.73828125 C173.41611328 239.74963135 173.40644531 240.76098145 173.39648438 241.80297852 C173.16767015 255.997469 170.80242747 270.84060991 160.17578125 281.30078125 C159.5725 282.40550781 158.96921875 283.51023437 158.34765625 284.6484375 C156.292853 288.34727756 153.67099546 291.05236347 150.42578125 293.73828125 C149.86213867 294.20564697 149.29849609 294.6730127 148.71777344 295.15454102 C132.14607065 308.35546012 112.07714605 313.1321943 91.17578125 311.30078125 C72.58615253 308.5608133 55.06147598 298.43994829 43.61328125 283.61328125 C39.34950113 277.74508903 35.72996121 271.6145769 32.17578125 265.30078125 C31.11963511 263.52615107 30.05745603 261.75509257 28.98828125 259.98828125 C27.36514768 257.29729664 25.78174188 254.60167914 24.23828125 251.86328125 C22.53759799 248.85003746 20.6789684 245.95642307 18.80078125 243.05078125 C16.47582356 239.43034925 14.31603092 235.78926605 12.30078125 231.98828125 C9.96289465 227.60630664 7.39241098 223.45225062 4.67578125 219.30078125 C1.39699701 214.29024477 -1.56910614 209.20804337 -4.3828125 203.91796875 C-6.35407383 200.33871377 -8.56154656 196.93545057 -10.77734375 193.50390625 C-16.75730716 184.14594824 -22.54657293 174.6563323 -28.01171875 164.98828125 C-31.13456539 159.46617439 -34.40241478 154.05475753 -37.74609375 148.6640625 C-42.84288591 140.41530677 -47.86800294 132.12676023 -52.51171875 123.61328125 C-54.84190903 119.5077079 -57.36221431 115.51706561 -59.859375 111.51171875 C-60.50777344 110.45210938 -61.15617187 109.3925 -61.82421875 108.30078125 C-62.17379639 107.74156982 -62.52337402 107.1823584 -62.88354492 106.60620117 C-72.51808566 90.65018311 -72.13531016 69.45569704 -68.04296875 51.9609375 C-65.47260183 42.6433574 -61.11956021 33.71219432 -54.82421875 26.30078125 C-54.16421875 26.30078125 -53.50421875 26.30078125 -52.82421875 26.30078125 C-52.55222656 25.7078125 -52.28023437 25.11484375 -52 24.50390625 C-45.88045919 13.03739125 -30.58896298 6.19219665 -18.82421875 2.30078125 C-12.50027938 0.57126629 -6.53950799 -0.00581381 0 0 Z " fill="#282C31" transform="translate(1307.82421875,-0.30078125)"/>
<path d="M0 0 C14.35381667 12.37592855 23.76648788 30.55059203 25.20143127 49.54263306 C25.33088441 52.85285403 25.40930779 56.16044171 25.46875 59.47265625 C25.53141331 61.99936722 25.59483717 64.52605941 25.65893555 67.05273438 C25.68966156 68.36185791 25.72038757 69.67098145 25.75204468 71.01977539 C26.56485868 104.90458067 29.91567067 137.43871108 36.77954102 170.6496582 C37.57642886 174.52524537 38.31727519 178.40142693 38.96484375 182.3046875 C41.6619653 198.46693633 46.5973437 214.0202384 51.39453125 229.65969849 C51.94921208 231.47680752 52.49438677 233.29681028 53.0390625 235.11694336 C55.08415343 241.90778363 57.37979198 248.53047179 59.9765625 255.12890625 C62.096225 260.53984158 64.117133 265.94103596 65.890625 271.4765625 C67.93409357 277.69020218 70.55859447 283.5337041 73.3515625 289.44140625 C74.33870096 291.55661028 75.32438917 293.67249175 76.30859375 295.7890625 C76.77475098 296.7908252 77.2409082 297.79258789 77.72119141 298.82470703 C79.24232995 302.14683574 80.64993247 305.49961858 82.0390625 308.87890625 C87.96136594 322.92716093 95.49929206 336.89421548 103.86328125 349.64453125 C104.9765625 351.56640625 104.9765625 351.56640625 105.86328125 353.89453125 C107.24377354 357.20771275 109.12672397 360.08787919 111.1015625 363.06640625 C111.91522248 364.31044 112.72769695 365.55524984 113.5390625 366.80078125 C113.94769531 367.42791016 114.35632813 368.05503906 114.77734375 368.70117188 C116.60396502 371.54225219 118.34970562 374.42857967 120.1015625 377.31640625 C125.71859977 386.46887286 132.02927479 395.03040993 138.49194336 403.5949707 C141.47580441 407.55049573 144.40734685 411.53536822 147.2890625 415.56640625 C150.16129555 419.55162961 153.24134568 423.22711901 156.53125 426.87109375 C157.9765625 428.56640625 157.9765625 428.56640625 159.4140625 431.06640625 C161.47539784 434.3645428 164.15611778 436.76437447 166.9375 439.46484375 C168.80795242 441.39262805 170.35739927 443.32109915 171.9140625 445.50390625 C174.81568899 449.53306695 178.20009083 452.88090293 181.74609375 456.34375 C185.63266996 460.21671298 189.15552126 464.39949218 192.68359375 468.59765625 C196.20147587 472.72699869 199.871498 476.34364962 204.0078125 479.8515625 C205.92111511 481.51810981 207.70114967 483.25467816 209.4765625 485.06640625 C212.48204244 488.11948429 215.62802006 490.94839381 218.87109375 493.74609375 C221.11389879 495.68514226 223.32771406 497.65408574 225.5390625 499.62890625 C228.82280016 502.55596206 232.1480221 505.42582076 235.50390625 508.26953125 C236.9765625 509.56640625 236.9765625 509.56640625 238.8515625 511.56640625 C241.54496514 514.10137344 244.52843714 515.95096798 247.66015625 517.90625 C249.9765625 519.56640625 249.9765625 519.56640625 252.20703125 521.83984375 C255.81277965 525.38964965 259.76697221 528.27972969 263.8515625 531.25390625 C264.68929199 531.8675 265.52702148 532.48109375 266.39013672 533.11328125 C273.77664135 538.48936591 281.32976294 543.57124415 288.9765625 548.56640625 C290.41502022 549.54416542 291.85265002 550.52314492 293.2890625 551.50390625 C309.62391413 562.38353384 326.7742143 571.98693863 344.16796875 581.046875 C347.27527579 582.66702002 350.36548981 584.31323555 353.44140625 585.9921875 C361.25218377 590.24064998 369.00912674 593.93845759 377.31640625 597.109375 C381.01862771 598.58315153 384.58487255 600.26083787 388.1640625 602.00390625 C395.52732504 605.54427355 403.12623153 608.18690814 410.85546875 610.80859375 C415.02847916 612.22518557 419.15713505 613.73704992 423.2800293 615.29272461 C431.85675376 618.52579402 440.46482048 621.33544082 449.28808594 623.80957031 C452.61696178 624.74668574 455.9412235 625.69947899 459.265625 626.65234375 C466.16738804 628.63031757 473.07140586 630.60030891 479.9765625 632.56640625 C474.61970998 623.21046905 469.26905949 613.88968546 463.39453125 604.84765625 C461.70468117 602.12899937 460.30506253 599.334151 458.93359375 596.4453125 C457.92508275 594.46533784 456.76682144 592.66754744 455.5390625 590.81640625 C445.20150909 574.55796311 444.61868884 553.49161443 448.0390625 534.87890625 C449.82664503 527.89963666 453.16447069 519.2669741 458.4453125 514.140625 C460.24372082 512.43488193 460.24372082 512.43488193 461.78125 509.2265625 C463.94356986 505.32516359 466.65647027 502.78367643 470.1015625 500.00390625 C470.97022949 499.29403564 470.97022949 499.29403564 471.85644531 498.56982422 C487.90757858 485.66953462 506.56425505 481.28949285 526.9765625 482.56640625 C542.15916078 484.56660333 554.18969315 489.90474516 565.9765625 499.56640625 C567.0284375 500.32953125 568.0803125 501.09265625 569.1640625 501.87890625 C577.12601206 509.48699139 582.61827903 519.0477248 587.9765625 528.56640625 C589.47890618 531.090777 590.99785453 533.60444755 592.51953125 536.1171875 C593.66241252 538.03833109 594.77301928 539.97868014 595.87109375 541.92578125 C597.93305614 545.54798949 600.18680999 549.02291935 602.4765625 552.50390625 C605.28078769 556.80742016 607.85476438 561.09737513 610.04296875 565.74609375 C611.08920526 567.78603607 612.30421801 569.61359268 613.6015625 571.50390625 C618.4539613 578.61181706 622.64865787 586.13304302 626.9765625 593.56640625 C628.70258731 596.52658683 630.43150355 599.48504514 632.1640625 602.44140625 C632.58107422 603.15312988 632.99808594 603.86485352 633.42773438 604.59814453 C636.30698063 609.48852833 639.32468263 614.27338272 642.40625 619.0390625 C643.99980976 621.60382162 645.43522918 624.21263942 646.8515625 626.87890625 C649.48568319 631.8108769 652.45330799 636.47902807 655.51245117 641.15234375 C658.59060468 645.88617562 661.40225147 650.73675158 664.16308594 655.66064453 C666.02092297 658.95425231 667.96470097 662.13464344 670.1015625 665.25390625 C672.84035767 669.25505715 675.14044897 673.41289846 677.40234375 677.69921875 C678.46052198 679.62652104 679.58527152 681.51859161 680.76953125 683.37109375 C691.14365107 699.6954017 692.96193445 719.87414543 688.9765625 738.56640625 C684.7597451 756.59330061 673.88037882 772.59793976 658.14794922 782.61254883 C648.35244176 788.43135409 638.97814629 792.6439841 627.47851562 792.7434082 C626.17552017 792.75605209 624.87252472 792.76869598 623.53004456 792.78172302 C622.10596986 792.78985754 620.68189228 792.79749844 619.2578125 792.8046875 C618.16718915 792.81198474 618.16718915 792.81198474 617.054533 792.8194294 C611.52854928 792.8561334 606.002658 792.87215331 600.4765625 792.87890625 C599.26117231 792.88063213 599.26117231 792.88063213 598.02122879 792.88239288 C574.51606731 792.90566211 551.37314483 792.57768565 528.10723877 788.89898682 C525.82057107 788.54205731 523.53169051 788.20357694 521.24169922 787.86865234 C510.82286569 786.34196631 500.43125249 784.68258651 490.05029297 782.9173584 C488.12419227 782.59139068 486.19690536 782.2724534 484.26953125 781.95410156 C464.22477305 778.6266717 444.61031726 773.73971307 424.9765625 768.56640625 C423.7709668 768.24881348 422.56537109 767.9312207 421.32324219 767.60400391 C406.97482109 763.78402397 392.86539919 759.38429431 378.828125 754.54833984 C376.02629091 753.58353019 373.22051929 752.63095277 370.4140625 751.6796875 C362.62387437 749.01899693 355.00909947 746.29641625 347.578125 742.73046875 C344.59596548 741.39610908 341.57152886 740.36229143 338.4765625 739.31640625 C331.64618427 736.94914492 325.21240004 733.95629088 318.72460938 730.77636719 C315.18120924 729.04674312 311.68449111 727.41161033 307.96875 726.0859375 C303.40960168 724.43421933 299.2337745 722.18443592 294.9765625 719.87890625 C288.79282624 716.57067714 282.58360611 713.34609424 276.2890625 710.25390625 C271.64132671 707.96483273 267.11751055 705.62137536 262.84765625 702.671875 C260.8117449 701.40936601 260.8117449 701.40936601 257.7578125 700.23828125 C253.5559607 698.48126435 249.85041034 696.10242322 246.0390625 693.62890625 C242.08328882 691.06973938 238.174412 688.60613775 233.9296875 686.55078125 C229.93166006 684.60667878 226.32297816 682.26865001 222.6640625 679.75390625 C221.35221612 678.86492012 220.03971138 677.97690478 218.7265625 677.08984375 C218.08976562 676.65897461 217.45296875 676.22810547 216.796875 675.78417969 C214.28200918 674.10175604 211.72649649 672.48770713 209.1640625 670.87890625 C201.12120352 665.79420367 193.43958939 660.21297655 185.76171875 654.59765625 C183.92164591 653.25566764 182.07536481 651.92214577 180.22265625 650.59765625 C174.52232022 646.51092886 169.03786022 642.23998832 163.63671875 637.765625 C161.22909697 635.77518291 158.79845669 633.82068861 156.3515625 631.87890625 C145.75446446 623.41136858 135.19495246 614.9103179 125.2734375 605.65234375 C123.72773204 604.24859083 122.13115156 602.89911648 120.4921875 601.60546875 C117.7876985 599.41332083 115.40606346 597.05915608 112.9765625 594.56640625 C105.05261634 586.44551602 105.05261634 586.44551602 96.6640625 578.81640625 C93.28368436 575.94098086 90.43041787 572.78675952 87.5625 569.40625 C86.24602448 567.87900869 84.83982086 566.42966461 83.4140625 565.00390625 C80.98760936 562.57745311 78.79151665 560.04805557 76.6015625 557.41015625 C74.49607055 555.02123269 72.23155396 552.81496407 69.9765625 550.56640625 C62.23964532 542.53860959 54.80139532 534.38938404 47.9765625 525.56640625 C45.98436914 523.06014441 43.97978182 520.56385816 41.9765625 518.06640625 C40.94130043 516.77091789 39.90614214 515.47534659 38.87109375 514.1796875 C37.14738752 512.02435219 35.41603659 509.87645501 33.67578125 507.734375 C29.85660562 503.02529437 26.27672288 498.22951667 22.8515625 493.2265625 C21.44932278 491.2371349 20.02348302 489.30140442 18.5390625 487.375 C18.12454834 486.83536621 17.71003418 486.29573242 17.28295898 485.73974609 C16.09385261 484.19985918 14.89672306 482.66617779 13.69921875 481.1328125 C11.9765625 478.56640625 11.9765625 478.56640625 11.9765625 475.56640625 C11.3165625 475.56640625 10.6565625 475.56640625 9.9765625 475.56640625 C8.2421875 473.29296875 8.2421875 473.29296875 6.2265625 470.19140625 C5.50726563 469.08667969 4.78796875 467.98195313 4.046875 466.84375 C1.85076828 463.36727162 -0.25446723 459.84813215 -2.33984375 456.3046875 C-4.00616843 453.59449353 -5.76022847 450.96720388 -7.5480957 448.33666992 C-13.21072525 440.0032115 -18.22709721 431.42298021 -23.0234375 422.56640625 C-23.59449219 421.51195312 -24.16554688 420.4575 -24.75390625 419.37109375 C-25.86869839 417.30038721 -26.97924572 415.22739083 -28.0859375 413.15234375 C-29.5561998 410.41130987 -31.06528377 407.69385746 -32.5859375 404.98046875 C-38.50678647 394.389757 -43.95537282 383.68620053 -49.03393555 372.66772461 C-50.04182637 370.52735541 -51.09538768 368.4152896 -52.1640625 366.3046875 C-53.53800253 363.57962257 -54.76620928 360.8652975 -55.8359375 358.00390625 C-57.23069181 354.4189518 -58.77351297 350.9471413 -60.44384766 347.48193359 C-63.83307508 340.44191276 -66.69202415 333.319871 -69.32519531 325.96484375 C-71.12004238 320.96562568 -73.03138005 316.0371507 -75.05688477 311.12695312 C-78.74334288 302.17799952 -81.78017261 293.20816693 -84.453125 283.91015625 C-85.88695685 278.94502276 -87.47750368 274.03837709 -89.0859375 269.12744141 C-92.07921449 259.97566209 -94.84251649 250.90910991 -96.8984375 241.5 C-97.80380814 237.40372836 -98.84233019 233.34899064 -99.8984375 229.2890625 C-103.86328177 214.02752545 -107.29013063 198.8907397 -109.48876953 183.25830078 C-110.11764315 178.91591408 -110.8017226 174.58356505 -111.48828125 170.25 C-114.76804856 149.40409869 -117.49651791 128.62079062 -119.0234375 107.56640625 C-119.1169751 106.29474609 -119.2105127 105.02308594 -119.30688477 103.71289062 C-120.07788016 92.4916554 -120.27478744 81.27287354 -120.31860352 70.02734375 C-120.33018001 67.96640183 -120.35071995 65.90549119 -120.38012695 63.84472656 C-120.611349 47.53259214 -119.7479959 33.49989644 -111.2109375 19.12890625 C-110.76862793 18.36521729 -110.32631836 17.60152832 -109.87060547 16.81469727 C-100.36758277 0.74315488 -84.73065616 -10.59685657 -66.5859375 -15.30859375 C-64.73629215 -15.705294 -62.88249059 -16.08362141 -61.0234375 -16.43359375 C-59.321875 -16.77390625 -59.321875 -16.77390625 -57.5859375 -17.12109375 C-35.84325084 -19.02834697 -16.9410932 -13.82631697 0 0 Z " fill="#282C31" transform="translate(120.0234375,1254.43359375)"/>
<path d="M0 0 C12.14993227 11.28552383 19.76249255 25.75213651 23 42 C23.0573159 43.99917855 23.07524789 46.00141606 23 48 C24.11568359 47.89171875 24.11568359 47.89171875 25.25390625 47.78125 C32.71747158 47.14680289 40.10051511 46.93045311 47.5871582 46.95947266 C49.0898537 46.96252883 49.0898537 46.96252883 50.62290668 46.96564674 C53.74862993 46.97345261 56.87429973 46.9857819 60 47 C60.95453945 47.00432793 61.9090789 47.00865585 62.89254379 47.01311493 C74.99823363 47.07302743 87.10363343 47.1782922 99.20896435 47.28752708 C104.77771179 47.3377589 110.34643551 47.38418894 115.9152832 47.421875 C121.37541761 47.45890072 126.83540073 47.50524369 132.29540443 47.55806351 C134.3536549 47.57643676 136.41193682 47.5916059 138.47023582 47.60334396 C166.41998743 47.76889157 166.41998743 47.76889157 177.9375 54.375 C178.65228516 54.76171875 179.36707031 55.1484375 180.10351562 55.546875 C184.04853495 57.72192728 187.56176779 60.06580183 191 63 C191.98613281 63.79470703 191.98613281 63.79470703 192.9921875 64.60546875 C208.08783393 77.28957 215.72726311 94.9574624 217.7734375 114.3359375 C218.99591864 134.10640838 213.00152238 152.63175846 200.14599609 167.61669922 C187.56445976 181.77367801 170.73721271 190.92960563 151.62789917 192.15170288 C145.45979518 192.36187242 139.29468791 192.27525992 133.125 192.1875 C131.26172967 192.17241345 129.39844741 192.15873213 127.53515625 192.14648438 C123.02313651 192.11382199 118.51170435 192.06226344 114 192 C113.73807861 193.18480957 113.47615723 194.36961914 113.20629883 195.59033203 C109.2913278 213.2749714 105.17114335 230.52088236 98.8984375 247.54296875 C98.01495926 249.95908967 97.16040284 252.3836942 96.3125 254.8125 C90.43064602 271.49001037 82.61305871 287.05557825 74.30859375 302.640625 C71.43400091 308.04244928 68.70570255 313.51179415 66 319 C78.93178564 329.57703102 93.75057043 337.86835063 110 342 C111.25804443 342.32822754 111.25804443 342.32822754 112.54150391 342.66308594 C123.92718708 345.56843988 134.81197414 347.33795542 146.55688477 347.62695312 C154.79215412 347.88452615 162.17459522 349.49174732 170 352 C171.01964844 352.31453125 172.03929687 352.6290625 173.08984375 352.953125 C190.03159579 359.04760761 202.9025457 372.02609431 210.95654297 387.88330078 C212.62728481 391.5000941 213.89287526 395.17778362 215 399 C215.22945312 399.73863281 215.45890625 400.47726562 215.6953125 401.23828125 C220.43256675 418.95294326 218.17078662 439.34632199 209.65625 455.55859375 C208.21057475 457.81143768 206.65526913 459.89674519 205 462 C204.06414062 463.28777344 204.06414062 463.28777344 203.109375 464.6015625 C191.04480904 480.46423256 175.45799228 488.98374088 155.93408203 492.35693359 C149.44489364 493.22382676 143.02515066 492.97600754 136.5 492.6875 C135.34580566 492.63827393 134.19161133 492.58904785 133.00244141 492.53833008 C123.9159949 492.11365265 114.99373691 491.33368663 106 490 C104.67548828 489.81679199 104.67548828 489.81679199 103.32421875 489.62988281 C88.02590513 487.49246619 73.63452162 483.91407848 59 479 C58.31760254 478.77699219 57.63520508 478.55398438 56.93212891 478.32421875 C36.59056663 471.66717541 16.16602516 462.11980812 -1.359375 449.7890625 C-4.06227846 447.90233893 -4.06227846 447.90233893 -7.33203125 446.140625 C-11.46790654 443.81496719 -15.17548825 441.0054603 -18.9375 438.125 C-19.60201172 437.62097656 -20.26652344 437.11695313 -20.95117188 436.59765625 C-22.28610709 435.58512537 -23.61994295 434.57114332 -24.95263672 433.55566406 C-28.28921615 431.02040481 -31.64459851 428.51026707 -35 426 C-35.65226562 426.54269531 -36.30453125 427.08539062 -36.9765625 427.64453125 C-37.85054687 428.35996094 -38.72453125 429.07539062 -39.625 429.8125 C-40.91277344 430.87404297 -40.91277344 430.87404297 -42.2265625 431.95703125 C-45.04684355 434.03450588 -47.85904896 435.46415235 -51 437 C-52.86655385 438.23142631 -54.71944831 439.48366888 -56.5625 440.75 C-81.86584276 457.38679765 -111.4422792 470.4565852 -140.61523438 478.33789062 C-143.10769127 479.02989954 -145.57609106 479.78125335 -148.046875 480.546875 C-174.68246534 488.7047316 -203.20146263 492.05719246 -231 493 C-232.86591797 493.07927734 -232.86591797 493.07927734 -234.76953125 493.16015625 C-255.84824604 493.66781116 -276.42660823 488.15812061 -292.328125 473.6953125 C-306.07727746 459.75341491 -314.04931436 441.91301941 -315.03515625 422.31640625 C-314.83585227 403.51539713 -308.36363362 383.74014275 -295.125 369.984375 C-291.26826747 366.38286742 -287.27201234 363.097373 -283 360 C-281.88044922 359.18015625 -281.88044922 359.18015625 -280.73828125 358.34375 C-270.28392409 351.38601145 -256.47910469 348.14729615 -244.06640625 347.60546875 C-242.69168589 347.53944127 -241.31701269 347.47242619 -239.94238281 347.40454102 C-239.22715454 347.36966583 -238.51192627 347.33479065 -237.77502441 347.29885864 C-224.34428596 346.62287568 -211.32344332 345.36559277 -198.15966797 342.47167969 C-196.26010386 342.05680767 -194.35122384 341.68508556 -192.44140625 341.3203125 C-182.59816277 339.32954416 -173.30377884 335.70606176 -164 332 C-162.88383301 331.55744873 -162.88383301 331.55744873 -161.74511719 331.10595703 C-140.76252466 322.64463071 -121.60037413 310.68054606 -104.76953125 295.5859375 C-102.9782334 293.98049175 -101.15095192 292.42607078 -99.3125 290.875 C-90.23551976 283.08307539 -82.56555108 273.81932807 -75.0703125 264.53515625 C-72.91520417 261.89616511 -70.68622734 259.34170196 -68.38671875 256.828125 C-66.70711481 254.61388656 -65.40010162 252.23422656 -64.04663086 249.81152344 C-62.48644312 247.11112852 -60.69489316 244.57532007 -58.9375 242 C-51.01496105 230.01669609 -44.83533066 216.50967448 -40 203 C-39.30444503 201.08317042 -38.60794502 199.16668357 -37.91064453 197.25048828 C-37.55229523 196.26557404 -37.19394592 195.28065979 -36.82473755 194.26589966 C-36.41649246 193.14427933 -36.41649246 193.14427933 -36 192 C-37.63222504 192.00553076 -37.63222504 192.00553076 -39.29742432 192.01117325 C-65.8240537 192.10013137 -92.35066364 192.16577877 -118.87741089 192.20724869 C-131.70576289 192.22783835 -144.53401611 192.25589009 -157.36230469 192.30175781 C-168.54871439 192.34173577 -179.73505252 192.36745892 -190.92153168 192.37635398 C-196.8399085 192.38155017 -202.75808064 192.39368788 -208.6763916 192.42292023 C-214.25779265 192.45026264 -219.83890653 192.45840721 -225.42036819 192.45243073 C-227.45838613 192.45352259 -229.49641463 192.46136337 -231.53437424 192.4768219 C-246.63776757 192.58567404 -260.93112156 191.49974858 -274.5 184.125 C-275.16233643 183.77912842 -275.82467285 183.43325684 -276.50708008 183.0769043 C-281.35923009 180.48729719 -285.86899044 177.65312928 -290 174 C-290.825 173.278125 -291.65 172.55625 -292.5 171.8125 C-306.02114017 156.60121731 -314 138.51879253 -314 118 C-312.70710609 98.32377079 -305.27797645 79.5922954 -290.76171875 65.88671875 C-275.03175297 52.62823695 -259.03762691 47.71848724 -238.61230469 47.68115234 C-236.69309959 47.66608391 -236.69309959 47.66608391 -234.73512268 47.65071106 C-231.26694797 47.6236946 -227.79881319 47.60834714 -224.33056164 47.59528303 C-220.69105193 47.57952662 -217.05162235 47.55277716 -213.41217041 47.5272522 C-206.53836124 47.48068381 -199.66453663 47.4438344 -192.79065156 47.41057932 C-184.95734066 47.37220174 -177.12411069 47.3228332 -169.29086828 47.27259517 C-153.19397052 47.16960212 -137.09702763 47.08023691 -121 47 C-120.70581429 45.34948135 -120.70581429 45.34948135 -120.40568542 43.6656189 C-120.1407209 42.20851562 -119.87551553 40.75145613 -119.61010742 39.29443359 C-119.48178276 38.5707811 -119.3534581 37.8471286 -119.22124481 37.10154724 C-118.26132167 31.87019444 -116.8944825 27.30260642 -114.3125 22.625 C-113.96509766 21.96636963 -113.61769531 21.30773926 -113.25976562 20.62915039 C-104.57880837 4.67300351 -89.22347421 -8.79271817 -71.91015625 -14.71484375 C-46.87024254 -21.50785004 -19.97056892 -16.51866682 0 0 Z " fill="#282C31" transform="translate(594,319)"/>
<path d="M0 0 C1.18207031 0.37769531 2.36414062 0.75539063 3.58203125 1.14453125 C21.97679849 7.97805309 34.95231093 23.58335947 43 41 C44.31686213 43.69575295 45.65765749 46.37936146 47 49.0625 C47.34579102 49.75690186 47.69158203 50.45130371 48.04785156 51.16674805 C50.2091014 55.48770544 52.45219456 59.73966796 54.89453125 63.91015625 C56 66 56 66 57.32421875 69.15234375 C59.26142185 73.7525121 61.63991119 78.10606994 64 82.5 C66.91556985 87.92810504 69.57137603 93.33321073 72 99 C73.61543557 102.1941567 75.30632262 105.34677123 77 108.5 C79.91556985 113.92810504 82.57137603 119.33321073 85 125 C86.61543557 128.1941567 88.30632262 131.34677123 90 134.5 C94.60060139 143.06523729 94.60060139 143.06523729 96.46875 147.4375 C98.54609654 152.27051032 101.02596529 156.86036461 103.5 161.5 C106.57322806 167.26332159 109.43248356 172.99091897 112 179 C113.61546036 182.19414142 115.30632407 185.34677392 117 188.5 C119.91533702 193.92767158 122.5775836 199.3306508 125 205 C126.51033975 208.00716257 128.09876488 210.97117149 129.6875 213.9375 C135.69826741 225.26776365 141.47517159 236.67827537 146.875 248.3125 C150.13127251 255.31986284 153.65886665 262.15662947 157.28417969 268.97924805 C162.40409513 278.61795128 167.32527596 288.33927145 171.89501953 298.25146484 C175.4371658 305.92699755 179.28512521 313.34304114 183.49951172 320.67333984 C185.93807622 324.94404287 188.03507861 329.24628258 189.98632812 333.75927734 C191.99762904 338.20525995 194.4342807 342.43982883 196.8203125 346.69335938 C199.38990298 351.41150946 200.89867363 355.73613366 202 361 C202.66 361 203.32 361 204 361 C211.92761401 375.25816015 211.92761401 375.25816015 213.8125 381.1875 C215.99991546 387.76954199 219.52366808 393.65159917 222.94067383 399.65698242 C225.56668253 404.290766 227.91452047 408.92115202 230.02148438 413.81201172 C231.65942325 417.47448882 233.5878492 420.97527005 235.5 424.5 C239.98311195 432.89100141 243.78331438 441.30653621 247.1875 450.1875 C247.45006592 450.86562744 247.71263184 451.54375488 247.9831543 452.24243164 C254.22991723 468.86033121 252.27076331 488.18000924 245.19921875 504.125 C241.68595701 511.70794206 237.89064146 518.01434819 232 524 C231.48179687 524.66128906 230.96359375 525.32257812 230.4296875 526.00390625 C225.6271262 532.11731157 219.82143958 535.42034228 213 539 C212.27425781 539.4021875 211.54851563 539.804375 210.80078125 540.21875 C194.42319822 548.98889588 173.89251246 549.05383577 156.2734375 544.2578125 C133.25236729 536.76103747 119.91607232 519.30308198 108.94799805 498.8737793 C107.48442151 495.98092585 106.27224416 492.98097635 105 490 C103.18968889 486.56932476 101.31020324 483.18336773 99.42578125 479.79296875 C98 477 98 477 98 475 C16.82 475 -64.36 475 -148 475 C-148.66 476.65 -149.32 478.3 -150 480 C-162.53050366 507.51129078 -174.13255356 531.22689876 -203.3671875 543.40234375 C-220.92157439 549.67814873 -242.06665709 548.78800265 -259 541 C-278.11780043 531.32593231 -291.04934427 517.45680955 -297.9375 497 C-305.97110155 471.72819582 -297.70846548 449.72151793 -286.11767578 427.15136719 C-283.80313378 422.69620246 -281.44469333 418.26363364 -279.05761719 413.84692383 C-277.41938085 410.79435336 -275.90891259 407.78590776 -274.55078125 404.59375 C-272.24973705 399.26135539 -269.4404507 394.21674224 -266.671875 389.11523438 C-264.71368598 385.45542627 -262.88156394 381.88347912 -261.5 377.96484375 C-259.56715555 372.52396808 -256.55974998 367.68827497 -253.671875 362.7109375 C-251.67052808 359.20255223 -249.84464175 355.81485439 -248.5 352 C-246.57579921 346.54089102 -243.56676831 341.70037127 -240.671875 336.7109375 C-238.30050616 332.55389936 -236.39020693 328.53161049 -234.80029297 324.02294922 C-233.27637947 320.17086036 -231.13076731 316.64278442 -229.0625 313.0625 C-226.09062603 307.89847911 -223.39200095 302.75864523 -221.02954102 297.2878418 C-219.19678315 293.21509483 -217.05229857 289.30655957 -214.9375 285.375 C-211.52934581 279.03513689 -211.52934581 279.03513689 -208.50390625 272.5078125 C-206.21830379 267.17671898 -203.41485823 262.13413312 -200.671875 257.02734375 C-198.21767427 252.4220213 -196.0561919 247.79957065 -194 243 C-191.99175268 239.02981527 -189.86731683 235.12121119 -187.75976562 231.203125 C-185.30715571 226.60308576 -183.07231783 221.97657157 -180.99389648 217.19677734 C-179.01016199 212.81219297 -176.65264985 208.62040364 -174.35546875 204.39453125 C-172.43318191 200.82079523 -170.63216638 197.24494326 -169.01171875 193.5234375 C-167.00760913 188.92536674 -164.6929975 184.53713708 -162.3125 180.125 C-158.83066504 173.594783 -155.51299313 167.01474346 -152.375 160.3125 C-147.07397929 148.99163694 -141.53291182 137.82919203 -135.625 126.8125 C-131.74101141 119.56042423 -128.17539396 112.17992877 -124.66503906 104.7409668 C-119.71583099 94.2542304 -114.58357179 83.88526033 -109.0625 73.6875 C-106.03080386 68.08685986 -103.2569367 62.39488722 -100.5625 56.625 C-83.94325564 21.25209289 -83.94325564 21.25209289 -69 10 C-68.37351562 9.49210937 -67.74703125 8.98421875 -67.1015625 8.4609375 C-59.92439326 3.09868462 -51.44917101 0.65097978 -43 -2 C-42.18660156 -2.27070312 -41.37320312 -2.54140625 -40.53515625 -2.8203125 C-27.30973397 -6.53914411 -12.77313689 -4.16144336 0 0 Z M-25 230 C-34.51028199 248.12480597 -43.73536424 266.32608503 -52.57373047 284.78710938 C-58.74214154 297.65861821 -65.13407833 310.37809248 -71.85205078 322.97216797 C-72.26181152 323.74318848 -72.67157227 324.51420898 -73.09375 325.30859375 C-73.46177734 325.99751709 -73.82980469 326.68644043 -74.20898438 327.39624023 C-75.07372444 328.85143641 -75.07372444 328.85143641 -75 330 C-42 330 -9 330 25 330 C23.47115875 325.41347625 21.80208247 321.32852394 19.625 317.0625 C19.28339844 316.38574219 18.94179687 315.70898438 18.58984375 315.01171875 C14.93713271 307.80882891 11.17742907 300.66113548 7.43310547 293.50561523 C1.768563 282.66874838 -3.72556264 271.77859586 -8.875 260.6875 C-11.87105883 254.24093244 -15.06276939 247.91488643 -18.375 241.625 C-18.80409668 240.80990967 -19.23319336 239.99481934 -19.67529297 239.1550293 C-21.35130997 235.99869788 -23.01489862 232.97765208 -25 230 Z " fill="#282C31" transform="translate(1517,1184)"/>
</svg>
